<?xml version="1.0" encoding="UTF-8"?>
<svg version="1.1" xmlns="http://www.w3.org/2000/svg" width="225" height="225">
<path d="M0 0 C74.25 0 148.5 0 225 0 C225 74.25 225 148.5 225 225 C150.75 225 76.5 225 0 225 C0 150.75 0 76.5 0 0 Z " fill="#FEFEFE" transform="translate(0,0)"/>
<path d="M0 0 C19.50659206 -0.608863 37.1053447 2.45299825 55.72949219 8.08251953 C55.72949219 8.74251953 55.72949219 9.40251953 55.72949219 10.08251953 C56.55449219 10.33001953 57.37949219 10.57751953 58.22949219 10.83251953 C66.65899265 13.84305541 72.90837395 18.30745138 79.72949219 24.08251953 C80.43332031 24.66259766 81.13714844 25.24267578 81.86230469 25.84033203 C94.34440098 36.36445243 103.1731776 48.97505287 106.72949219 65.08251953 C108.41223133 84.89242098 103.78390184 101.30338498 90.90917969 116.68017578 C73.18205233 136.21813873 46.10529233 148.70592445 19.72949219 150.08251953 C5.45887022 150.68703542 -8.36635698 150.53055889 -22.27050781 147.08251953 C-22.96547363 146.91623047 -23.66043945 146.74994141 -24.37646484 146.57861328 C-48.12224122 140.74877957 -69.97777184 127.74449528 -83.20849609 106.66430664 C-91.66335067 92.29258623 -93.98678907 75.44844057 -90.20800781 59.14501953 C-82.62819288 36.61710445 -65.75038395 21.98054434 -45.24707031 11.54345703 C-30.6490208 4.72545683 -16.11888244 0.58582605 0 0 Z " fill="#FAFBFB" transform="translate(106.2705078125,34.91748046875)"/>
<path d="M0 0 C9.097371 0.94732954 17.59398125 7.90883283 24 14 C24.66952431 15.33190068 25.33678085 16.66494847 26 18 C27.485 18.495 27.485 18.495 29 19 C31.80635053 21.24508043 32.89840271 23.61046988 34 27 C34 27.99 34 28.98 34 30 C34.66 30 35.32 30 36 30 C36.64910154 31.58199631 37.29414694 33.16565724 37.9375 34.75 C38.29714844 35.63171875 38.65679687 36.5134375 39.02734375 37.421875 C42.27030834 46.01768476 41.67390569 53.85542643 38.2578125 62.3359375 C31.54484032 76.55409596 20.55146751 85.33660157 6 90.75 C-4.57746499 94.49202771 -14.50369901 95.39109281 -25.6875 95.375 C-26.35330078 95.37412384 -27.01910156 95.37324768 -27.70507812 95.37234497 C-37.74867092 95.32869425 -46.6337319 94.89397124 -56 91 C-57.20269531 90.50242187 -58.40539062 90.00484375 -59.64453125 89.4921875 C-67.62271325 85.9467978 -73.95116239 81.26774792 -80 75 C-80.52207031 74.46375 -81.04414062 73.9275 -81.58203125 73.375 C-89.75658075 64.2866791 -90.78361258 54.16897823 -90.5234375 42.453125 C-90.02797063 34.52018034 -86.89037969 29.25097817 -82 23 C-81.59313965 22.47083984 -81.1862793 21.94167969 -80.76708984 21.39648438 C-73.77415378 12.48599875 -65.11944792 6.05972396 -55 1 C-53.00039988 0.960008 -50.99952758 0.95653201 -49 1 C-45.0924069 6.93220957 -43.69020045 12.57680013 -42.3125 19.5 C-42.07047852 20.6653125 -41.82845703 21.830625 -41.57910156 23.03125 C-39.86634888 31.39066285 -38.2743293 39.7728961 -36.68359375 48.15625 C-36.38265556 49.73956116 -36.38265556 49.73956116 -36.07563782 51.3548584 C-35.06359093 56.68581746 -34.06014285 62.0181587 -33.0715332 67.35351562 C-32.69882912 69.33986226 -32.32603057 71.32619118 -31.953125 73.3125 C-31.78562241 74.23115845 -31.61811981 75.14981689 -31.44554138 76.09631348 C-31.2846553 76.94753784 -31.12376923 77.79876221 -30.95800781 78.67578125 C-30.75198944 79.7882019 -30.75198944 79.7882019 -30.54180908 80.9230957 C-29.95458402 83.17409205 -29.18819805 85.00067346 -28 87 C-27.01 87.495 -27.01 87.495 -26 88 C-26 88.99 -26 89.98 -26 91 C-25.34 91 -24.68 91 -24 91 C-24 90.01 -24 89.02 -24 88 C-23.34 88 -22.68 88 -22 88 C-19.96006265 80.16643346 -18.2208246 72.33363253 -16.75 64.375 C-14.70241353 53.52061601 -12.53797881 42.69409378 -10.3125 31.875 C-10.08705505 30.773909 -10.08705505 30.773909 -9.85705566 29.65057373 C-4.75666265 4.75666265 -4.75666265 4.75666265 0 0 Z " fill="#FCFDFD" transform="translate(139,88)"/>
<path d="M0 0 C0 0.66 0 1.32 0 2 C0.99 2 1.98 2 3 2 C3 2.66 3 3.32 3 4 C3.721875 3.95875 4.44375 3.9175 5.1875 3.875 C8.20729369 4.00921305 10.26935729 4.75170619 13 6 C13 6.66 13 7.32 13 8 C17.95 8.495 17.95 8.495 23 9 C23.495 10.98 23.495 10.98 24 13 C24.495 6.565 24.495 6.565 25 0 C25.33 0 25.66 0 26 0 C26.85373239 7.02804699 27.12109311 13.92278069 27 21 C27.66 21 28.32 21 29 21 C28.505 15.06 28.505 15.06 28 9 C29.75376953 8.72736328 29.75376953 8.72736328 31.54296875 8.44921875 C33.09123648 8.19586585 34.6394087 7.94192874 36.1875 7.6875 C36.95642578 7.56955078 37.72535156 7.45160156 38.51757812 7.33007812 C43.04091531 6.57295302 46.08634871 5.47842433 50 3 C58.90663556 0.75420078 65.23378556 2.51663133 73 7 C74.61455078 7.90878906 74.61455078 7.90878906 76.26171875 8.8359375 C88.24961201 15.88108732 96.88977839 23.41327646 103 36 C103 37.32 103 38.64 103 40 C99.32589215 41.17571451 95.83070817 41.07366746 92 41 C92.433125 41.97839844 92.433125 41.97839844 92.875 42.9765625 C94.92067328 47.79241835 96.56219981 51.6591018 96 57 C94.58098603 54.23103912 93.32805831 51.43094895 92.125 48.5625 C89.78479611 43.28361022 89.78479611 43.28361022 86 39 C84.01527444 38.72664595 84.01527444 38.72664595 81.8125 38.6875 C76.42056358 38.38794798 74.07972844 35.79512499 70.3359375 32.13671875 C66.63355365 28.75009005 62.3936562 26.38274274 58 24 C57.32582031 23.59523438 56.65164062 23.19046875 55.95703125 22.7734375 C53.47777892 21.79361323 52.47051831 22.06822736 50 23 C46.13121782 29.15846959 44.89928916 35.27792733 43.6875 42.375 C43.2707615 44.6775431 42.85134524 46.97960267 42.4296875 49.28125 C42.20506836 50.51488281 41.98044922 51.74851563 41.74902344 53.01953125 C40.2574887 61.05543212 38.53531563 69.04809886 36.85678101 77.04656982 C36.41951151 79.13221153 35.98432901 81.2182691 35.55078125 83.3046875 C35.41348099 83.964617 35.27618073 84.62454651 35.13471985 85.30447388 C34.09480031 90.37331367 33.23731986 95.45764722 32.47973633 100.57568359 C31.8404146 103.80645448 30.70946761 106.20268936 29 109 C28.34 109 27.68 109 27 109 C27 109.99 27 110.98 27 112 C26.34 112 25.68 112 25 112 C25 111.01 25 110.02 25 109 C24.36408936 108.75419189 23.72817871 108.50838379 23.07299805 108.25512695 C21 107 21 107 20.22973633 105.19213867 C20.09849365 104.4416626 19.96725098 103.69118652 19.83203125 102.91796875 C19.66558105 102.02730713 19.49913086 101.13664551 19.32763672 100.21899414 C19.07264404 98.71840454 19.07264404 98.71840454 18.8125 97.1875 C18.3959801 94.93983519 17.97787204 92.69246439 17.55859375 90.4453125 C17.38611115 89.50097099 17.38611115 89.50097099 17.21014404 88.53755188 C15.56526403 79.53762137 13.76670252 70.56752751 11.97763062 61.59536743 C11.38310069 58.60326846 10.7962053 55.60974645 10.21020508 52.6159668 C9.83572466 50.72439206 9.4609796 48.8328697 9.0859375 46.94140625 C8.92041885 46.08791595 8.75490021 45.23442566 8.58436584 44.35507202 C7.12014317 37.03139606 5.51808446 29.63855325 2 23 C-6.37708425 22.41756959 -12.64156444 27.21716676 -18.89453125 32.3984375 C-20.59636455 33.93831009 -22.28080594 35.49778038 -23.94140625 37.08203125 C-26 39 -26 39 -29 41 C-31.1875 40.625 -31.1875 40.625 -33 40 C-33.33 40.66 -33.66 41.32 -34 42 C-35 39 -35 39 -33.8125 36.4375 C-31.97998043 33.97307714 -30.82554579 33.07175875 -28 32 C-28 31.34 -28 30.68 -28 30 C-27.34 30 -26.68 30 -26 30 C-26 29.34 -26 28.68 -26 28 C-31.87223213 31.35556121 -35.96090728 35.92181456 -39 42 C-42.63 41.67 -46.26 41.34 -50 41 C-51.23220674 34.83896632 -50.09512976 33.62858475 -46.87109375 28.625 C-37.01192135 14.79334269 -17.90970811 -0.48404617 0 0 Z " fill="#DADDDE" transform="translate(88,67)"/>
<path d="M0 0 C0.99 0.33 1.98 0.66 3 1 C2.01 1.99 1.02 2.98 0 4 C0.639375 4.2475 1.27875 4.495 1.9375 4.75 C4 6 4 6 4.625 8.0625 C4.74875 8.701875 4.8725 9.34125 5 10 C5.66 10.33 6.32 10.66 7 11 C6.50185791 11.32162109 6.00371582 11.64324219 5.49047852 11.97460938 C-12.14964707 23.41244315 -28.49002331 35.14340802 -33.60961914 56.84521484 C-34.26847415 60.48189673 -34.34043815 64.06176572 -34.3125 67.75 C-34.30404053 68.92961304 -34.30404053 68.92961304 -34.29541016 70.13305664 C-33.95762037 86.47907228 -27.11785018 99.2089236 -16 111 C-13.73199471 112.91492755 -11.53280634 114.4372046 -9 116 C-9.56847656 115.44054687 -10.13695312 114.88109375 -10.72265625 114.3046875 C-17.38232226 107.38930811 -25 98.04402353 -25 88 C-24.34 88 -23.68 88 -23 88 C-23 88.66 -23 89.32 -23 90 C-18.05 89.505 -18.05 89.505 -13 89 C-11.9971159 91.96466615 -11.02162955 94.9262629 -10.140625 97.9296875 C-8.09737412 104.68675402 -5.71618982 109.74710093 -1 115 C-0.49855469 115.59296875 0.00289062 116.1859375 0.51953125 116.796875 C10.22299789 127.46832736 26.7238333 134.34936563 41.06762695 135.17700195 C44.81602463 135.24415261 48.56355218 135.29872271 52.3125 135.3125 C53.32502335 135.31642761 53.32502335 135.31642761 54.35800171 135.32043457 C64.79455807 135.32478281 74.15409272 134.63734154 84 131 C84.85722656 130.68804687 85.71445313 130.37609375 86.59765625 130.0546875 C88.81643563 129.14890792 90.89073531 128.13606347 93 127 C93.81855469 126.56945312 94.63710937 126.13890625 95.48046875 125.6953125 C106.51028151 119.5212872 114.01946966 111.21251717 118 99 C119.18229333 93.7247923 119.65723696 88.38627627 120 83 C120.66 83 121.32 83 122 83 C122.33 82.34 122.66 81.68 123 81 C124 82 124 82 124.09765625 84.28515625 C124.08025391 85.65994141 124.08025391 85.65994141 124.0625 87.0625 C124.05347656 87.98160156 124.04445312 88.90070313 124.03515625 89.84765625 C124.01775391 90.91306641 124.01775391 90.91306641 124 92 C124.25523437 91.36578125 124.51046875 90.7315625 124.7734375 90.078125 C126 88 126 88 129.625 86.75 C131.295625 86.37875 131.295625 86.37875 133 86 C132.30183553 98.56696055 124.84120492 108.46082382 116 117 C116.94875 116.175 117.8975 115.35 118.875 114.5 C121.75 112 121.75 112 124 112 C124 111.34 124 110.68 124 110 C124.680625 109.34 125.36125 108.68 126.0625 108 C135.92141929 98.42037021 141.42167774 86.08727477 142.203125 72.45703125 C142.35132503 60.93447928 140.97185074 51.9116021 134.94140625 42.046875 C133.41054446 38.71836222 134.04352426 36.45802769 135 33 C135.66 33 136.32 33 137 33 C137.66 31.68 138.32 30.36 139 29 C141.39567496 29.37559311 142.67656546 29.64835896 144.34375 31.4609375 C152.81007681 45.47614066 155.19467814 60.73488448 152.31640625 76.8203125 C145.62889649 99.85198511 128.69433179 115.16981567 108.36328125 126.46484375 C82.75451875 139.04811324 51.58212561 141.83999014 24 135 C23.30503418 134.83371094 22.61006836 134.66742188 21.89404297 134.49609375 C-1.8517334 128.66626004 -23.70726403 115.66197575 -36.93798828 94.58178711 C-45.39284286 80.2100667 -47.71628126 63.36592104 -43.9375 47.0625 C-36.57917236 25.19286574 -20.1349776 10.0674888 0 0 Z " fill="#323437" transform="translate(60,47)"/>
<path d="M0 0 C19.50659206 -0.608863 37.1053447 2.45299825 55.72949219 8.08251953 C55.72949219 8.74251953 55.72949219 9.40251953 55.72949219 10.08251953 C56.96699219 10.45376953 56.96699219 10.45376953 58.22949219 10.83251953 C66.65899265 13.84305541 72.90837395 18.30745138 79.72949219 24.08251953 C80.43332031 24.66259766 81.13714844 25.24267578 81.86230469 25.84033203 C86.98779627 30.16182494 91.38412589 34.9859596 95.72949219 40.08251953 C94.96636719 40.80439453 94.20324219 41.52626953 93.41699219 42.27001953 C91.01815628 44.78042921 89.37538998 47.05060255 87.72949219 50.08251953 C87.06949219 49.75251953 86.40949219 49.42251953 85.72949219 49.08251953 C85.72949219 48.42251953 85.72949219 47.76251953 85.72949219 47.08251953 C84.73949219 46.75251953 83.74949219 46.42251953 82.72949219 46.08251953 C82.03314927 44.76444186 81.36944374 43.42887915 80.72949219 42.08251953 C66.59375216 26.46480676 42.48013518 16.50986965 21.72949219 15.08251953 C1.94519737 14.30009863 -15.85645334 14.79256085 -34.37988281 22.09423828 C-37.27050781 23.08251953 -37.27050781 23.08251953 -41.27050781 23.08251953 C-41.93050781 22.75251953 -42.59050781 22.42251953 -43.27050781 22.08251953 C-42.94050781 20.76251953 -42.61050781 19.44251953 -42.27050781 18.08251953 C-43.92050781 17.75251953 -45.57050781 17.42251953 -47.27050781 17.08251953 C-42.21808801 7.7355429 -32.74644054 6.03329433 -23.10644531 3.12939453 C-15.39133044 1.05303116 -7.96478356 0.28947278 0 0 Z " fill="#EBEDEF" transform="translate(106.2705078125,34.91748046875)"/>
<path d="M0 0 C0 0.66 0 1.32 0 2 C0.99 2 1.98 2 3 2 C3 2.66 3 3.32 3 4 C3.721875 3.95875 4.44375 3.9175 5.1875 3.875 C8.20729369 4.00921305 10.26935729 4.75170619 13 6 C13 6.66 13 7.32 13 8 C17.95 8.495 17.95 8.495 23 9 C24.50409973 15.01639893 25.14392511 20.61134159 25.09765625 26.8046875 C25.0962413 27.5286673 25.09482635 28.25264709 25.09336853 28.99856567 C25.08781075 31.29075407 25.07526633 33.58284157 25.0625 35.875 C25.05747953 37.43749858 25.05291759 38.99999871 25.04882812 40.5625 C25.03785519 44.37503835 25.0206201 48.18750212 25 52 C24.505 50.02 24.505 50.02 24 48 C23.34 48 22.68 48 22 48 C22 46.68 22 45.36 22 44 C19.69 44 17.38 44 15 44 C15 43.01 15 42.02 15 41 C14.34 41 13.68 41 13 41 C13 40.34 13 39.68 13 39 C11.68 39 10.36 39 9 39 C9 38.34 9 37.68 9 37 C8.34 37 7.68 37 7 37 C6.80664062 36.32453125 6.61328125 35.6490625 6.4140625 34.953125 C6.15367188 34.06109375 5.89328125 33.1690625 5.625 32.25 C5.24214844 30.92742187 5.24214844 30.92742187 4.8515625 29.578125 C4.0790066 27.23919428 3.16374324 25.16557438 2 23 C-6.37708425 22.41756959 -12.64156444 27.21716676 -18.89453125 32.3984375 C-20.59636455 33.93831009 -22.28080594 35.49778038 -23.94140625 37.08203125 C-26 39 -26 39 -29 41 C-31.1875 40.625 -31.1875 40.625 -33 40 C-33.33 40.66 -33.66 41.32 -34 42 C-35 39 -35 39 -33.8125 36.4375 C-31.97998043 33.97307714 -30.82554579 33.07175875 -28 32 C-28 31.34 -28 30.68 -28 30 C-27.34 30 -26.68 30 -26 30 C-26 29.34 -26 28.68 -26 28 C-31.87223213 31.35556121 -35.96090728 35.92181456 -39 42 C-42.63 41.67 -46.26 41.34 -50 41 C-51.23220674 34.83896632 -50.09512976 33.62858475 -46.87109375 28.625 C-37.01192135 14.79334269 -17.90970811 -0.48404617 0 0 Z " fill="#DADDDE" transform="translate(88,67)"/>
<path d="M0 0 C0.33 0 0.66 0 1 0 C1.01030746 0.55710159 1.02061493 1.11420319 1.03123474 1.68818665 C1.1393002 7.47933692 1.25389827 13.27033161 1.37231445 19.0612793 C1.41566313 21.2233556 1.45733825 23.38546613 1.49731445 25.54760742 C1.55501844 28.65293702 1.61871272 31.75809436 1.68359375 34.86328125 C1.70030624 35.83211746 1.71701874 36.80095367 1.73423767 37.79914856 C1.75418289 38.6998558 1.77412811 39.60056305 1.79467773 40.52856445 C1.81799416 41.71770195 1.81799416 41.71770195 1.84178162 42.93086243 C1.93081226 45.19739774 1.93081226 45.19739774 3 48 C3.556875 47.2575 4.11375 46.515 4.6875 45.75 C6.95459804 43.05399151 9.10752392 41.00248344 12 39 C12.99 39 13.98 39 15 39 C15 38.34 15 37.68 15 37 C15.99 37 16.98 37 18 37 C18.47650857 46.26442622 16.65724717 54.81406768 14.75 63.8125 C14.26261101 66.15950642 13.77821197 68.50711711 13.29400635 70.8547821 C12.97433788 72.40345609 12.65350607 73.95189042 12.33148193 75.50007629 C11.41739988 79.90792152 10.55197716 84.32003091 9.75 88.75 C9.57629883 89.7093042 9.40259766 90.6686084 9.22363281 91.65698242 C8.91912824 93.36424854 8.62106132 95.07268218 8.33105469 96.7824707 C7.51433513 101.31000138 6.29585802 104.94355422 4 109 C3.34 109 2.68 109 2 109 C2 109.99 2 110.98 2 112 C1.34 112 0.68 112 0 112 C0 111.01 0 110.02 0 109 C-0.63518555 108.75781738 -1.27037109 108.51563477 -1.92480469 108.26611328 C-4 107 -4 107 -4.78613281 105.11279297 C-4.92374023 104.33049316 -5.06134766 103.54819336 -5.203125 102.7421875 C-5.37497314 101.8253418 -5.54682129 100.90849609 -5.72387695 99.96386719 C-5.89749756 98.94454102 -6.07111816 97.92521484 -6.25 96.875 C-6.66375358 94.62730702 -7.07924862 92.37993419 -7.49609375 90.1328125 C-7.7266748 88.86598633 -7.95725586 87.59916016 -8.19482422 86.29394531 C-9.10205943 81.38941704 -10.09934424 76.50385347 -11.09765625 71.6171875 C-11.27990753 70.72220551 -11.46215881 69.82722351 -11.64993286 68.90512085 C-12.38698088 65.2861213 -13.12433129 61.66719291 -13.86657715 58.04925537 C-14.39097891 55.48688324 -14.90905318 52.92330405 -15.42578125 50.359375 C-15.58490494 49.58947235 -15.74402863 48.8195697 -15.90797424 48.02633667 C-16.6537199 44.30003008 -17.18926357 40.80405694 -17 37 C-16.01 37 -15.02 37 -14 37 C-14 37.66 -14 38.32 -14 39 C-13.34 39 -12.68 39 -12 39 C-12 39.66 -12 40.32 -12 41 C-11.34 41 -10.68 41 -10 41 C-10 41.99 -10 42.98 -10 44 C-7.69 44 -5.38 44 -3 44 C-3 45.32 -3 46.64 -3 48 C-2.34 48 -1.68 48 -1 48 C-0.67 32.16 -0.34 16.32 0 0 Z " fill="#35373C" transform="translate(113,67)"/>
<path d="M0 0 C0.98871094 -0.01095703 1.97742188 -0.02191406 2.99609375 -0.03320312 C10.18672676 0.03977353 10.18672676 0.03977353 13.5546875 2.59765625 C13.99039063 3.24605469 14.42609375 3.89445312 14.875 4.5625 C13.885 5.2225 12.895 5.8825 11.875 6.5625 C12.865 6.2325 13.855 5.9025 14.875 5.5625 C16.26939664 5.49584624 17.66669875 5.47711801 19.0625 5.5 C20.9496875 5.5309375 20.9496875 5.5309375 22.875 5.5625 C24.96730769 9.99326923 24.96730769 9.99326923 24.5 12.875 C24.29375 13.431875 24.0875 13.98875 23.875 14.5625 C23.215 13.5725 22.555 12.5825 21.875 11.5625 C14.68658987 10.59795344 9.5636169 14.63685471 3.875 18.5625 C1.12957035 20.83739043 -1.48711778 23.18383075 -4.06640625 25.64453125 C-6.125 27.5625 -6.125 27.5625 -9.125 29.5625 C-11.3125 29.1875 -11.3125 29.1875 -13.125 28.5625 C-13.455 29.2225 -13.785 29.8825 -14.125 30.5625 C-15.125 27.5625 -15.125 27.5625 -13.9375 25 C-12.10498043 22.53557714 -10.95054579 21.63425875 -8.125 20.5625 C-8.125 19.9025 -8.125 19.2425 -8.125 18.5625 C-7.465 18.5625 -6.805 18.5625 -6.125 18.5625 C-6.125 17.9025 -6.125 17.2425 -6.125 16.5625 C-11.99723213 19.91806121 -16.08590728 24.48431456 -19.125 30.5625 C-22.755 30.2325 -26.385 29.9025 -30.125 29.5625 C-31.35696791 23.40266044 -30.21917402 22.19707834 -27.00390625 17.19140625 C-24.02157144 13.01861763 -20.76837287 9.17238599 -17.125 5.5625 C-16.28195313 4.66273437 -15.43890625 3.76296875 -14.5703125 2.8359375 C-10.27075518 -0.67248506 -5.29905408 -0.12882063 0 0 Z " fill="#6B6D71" transform="translate(68.125,78.4375)"/>
<path d="M0 0 C6.31685861 5.69456585 11.00924099 12.04955153 14.7265625 19.70703125 C14.7265625 21.02703125 14.7265625 22.34703125 14.7265625 23.70703125 C11.05245465 24.88274576 7.55727067 24.78069871 3.7265625 24.70703125 C4.0153125 25.35929687 4.3040625 26.0115625 4.6015625 26.68359375 C6.64723578 31.4994496 8.28876231 35.36613305 7.7265625 40.70703125 C6.30754853 37.93807037 5.05462081 35.1379802 3.8515625 32.26953125 C1.51135861 26.99064147 1.51135861 26.99064147 -2.2734375 22.70703125 C-4.25816306 22.4336772 -4.25816306 22.4336772 -6.4609375 22.39453125 C-11.85287392 22.09497923 -14.19370906 19.50215624 -17.9375 15.84375 C-21.63988385 12.4571213 -25.8797813 10.08977399 -30.2734375 7.70703125 C-30.98757812 7.31773438 -31.70171875 6.9284375 -32.4375 6.52734375 C-34.25687244 5.5254471 -34.25687244 5.5254471 -36.3359375 5.95703125 C-38.54573042 6.73188786 -38.54573042 6.73188786 -41.2734375 8.70703125 C-40.3984375 1.83203125 -40.3984375 1.83203125 -39.2734375 0.70703125 C-33.56767343 0.10003507 -29.62308482 1.53291421 -24.41015625 3.83203125 C-22.34978969 4.83335198 -22.34978969 4.83335198 -20.2734375 4.70703125 C-20.6034375 3.38703125 -20.9334375 2.06703125 -21.2734375 0.70703125 C-5.01160742 -2.85024408 -5.01160742 -2.85024408 0 0 Z " fill="#5A5D62" transform="translate(176.2734375,83.29296875)"/>
<path d="M0 0 C-0.99 0.99 -1.98 1.98 -3 3 C-2.360625 3.2475 -1.72125 3.495 -1.0625 3.75 C1 5 1 5 1.625 7.0625 C1.74875 7.701875 1.8725 8.34125 2 9 C2.66 9.33 3.32 9.66 4 10 C3.50185791 10.32162109 3.00371582 10.64324219 2.49047852 10.97460938 C-14.28911787 21.85447717 -26.4376157 31.45474369 -35 50 C-35.66 49.67 -36.32 49.34 -37 49 C-37.6875 45.5 -37.6875 45.5 -38 42 C-37.505 41.505 -37.505 41.505 -37 41 C-37.66 40.67 -38.32 40.34 -39 40 C-39.33 40.66 -39.66 41.32 -40 42 C-42.5625 42.625 -42.5625 42.625 -45 43 C-39.59939172 25.48032339 -27.14149732 13.38696362 -12 4 C-10.65421875 3.15888672 -10.65421875 3.15888672 -9.28125 2.30078125 C-3.45477791 -1.15159264 -3.45477791 -1.15159264 0 0 Z " fill="#5B6064" transform="translate(63,48)"/>
<path d="M0 0 C9.98625197 1.67910431 17.48107383 7.5569728 25 14 C25.70125 14.57878906 26.4025 15.15757813 27.125 15.75390625 C32.25617494 20.07331328 36.65284477 24.90134187 41 30 C40.236875 30.721875 39.47375 31.44375 38.6875 32.1875 C36.28866409 34.69790967 34.64589779 36.96808302 33 40 C32.01 39.505 32.01 39.505 31 39 C31 38.34 31 37.68 31 37 C30.01 36.67 29.02 36.34 28 36 C27.30365708 34.68192233 26.63995156 33.34635962 26 32 C17.66694856 22.7933222 5.14606497 16.11075329 -6 11 C-4.89315584 7.16861638 -4.02722356 4.63236831 -1 2 C-0.67 1.34 -0.34 0.68 0 0 Z " fill="#788083" transform="translate(161,45)"/>
<path d="M0 0 C0.33 0 0.66 0 1 0 C1.01030746 0.55710159 1.02061493 1.11420319 1.03123474 1.68818665 C1.1393002 7.47933692 1.25389827 13.27033161 1.37231445 19.0612793 C1.41566313 21.2233556 1.45733825 23.38546613 1.49731445 25.54760742 C1.55501844 28.65293702 1.61871272 31.75809436 1.68359375 34.86328125 C1.70030624 35.83211746 1.71701874 36.80095367 1.73423767 37.79914856 C1.75418289 38.6998558 1.77412811 39.60056305 1.79467773 40.52856445 C1.81799416 41.71770195 1.81799416 41.71770195 1.84178162 42.93086243 C1.93081226 45.19739774 1.93081226 45.19739774 3 48 C3.556875 47.2575 4.11375 46.515 4.6875 45.75 C6.95459804 43.05399151 9.10752392 41.00248344 12 39 C12.99 39 13.98 39 15 39 C15 38.34 15 37.68 15 37 C15.99 37 16.98 37 18 37 C18.26618595 43.95041086 17.6120509 50.23514355 16 57 C15.01 57 14.02 57 13 57 C10.98848259 57.63106429 8.98636298 58.29373761 7 59 C7 59.66 7 60.32 7 61 C3.04 61 -0.92 61 -5 61 C-5.33 59.68 -5.66 58.36 -6 57 C-10.10223585 55.98459888 -10.10223585 55.98459888 -14 57 C-14.50604924 54.60530271 -15.00499517 52.20948283 -15.5 49.8125 C-15.64308594 49.13896484 -15.78617187 48.46542969 -15.93359375 47.77148438 C-16.68069842 44.12490207 -17.17352282 40.72351043 -17 37 C-16.01 37 -15.02 37 -14 37 C-14 37.66 -14 38.32 -14 39 C-13.34 39 -12.68 39 -12 39 C-12 39.66 -12 40.32 -12 41 C-11.34 41 -10.68 41 -10 41 C-10 41.99 -10 42.98 -10 44 C-7.69 44 -5.38 44 -3 44 C-3 45.32 -3 46.64 -3 48 C-2.34 48 -1.68 48 -1 48 C-0.67 32.16 -0.34 16.32 0 0 Z " fill="#6E7074" transform="translate(113,67)"/>
<path d="M0 0 C0 0.66 0 1.32 0 2 C0.99 2.33 1.98 2.66 3 3 C4.16796875 4.84765625 4.16796875 4.84765625 5.1875 7.0625 C5.53167969 7.79597656 5.87585938 8.52945313 6.23046875 9.28515625 C6.48441406 9.85105469 6.73835938 10.41695312 7 11 C6.67 10.071875 6.34 9.14375 6 8.1875 C5 5 5 5 5 2 C5.78246094 1.95101562 6.56492188 1.90203125 7.37109375 1.8515625 C8.38300781 1.77679688 9.39492187 1.70203125 10.4375 1.625 C11.44683594 1.55539063 12.45617187 1.48578125 13.49609375 1.4140625 C14.32238281 1.27742188 15.14867187 1.14078125 16 1 C16.33 0.34 16.66 -0.32 17 -1 C20.68112161 4.52168242 20.18183639 11.23665285 20.1875 17.6875 C20.19974609 18.43322266 20.21199219 19.17894531 20.22460938 19.94726562 C20.23487393 23.78278744 20.16800173 26.752282 18 30 C18 29.01 18 28.02 18 27 C14.34621848 28.21171114 14.34621848 28.21171114 11 30 C9.48026848 33.05181069 9.48026848 33.05181069 9 36 C8.1276588 33.00519083 7.89170234 30.36424089 7.9375 27.25 C7.94652344 26.45078125 7.95554688 25.6515625 7.96484375 24.828125 C7.97644531 24.22484375 7.98804688 23.6215625 8 23 C4.88214887 23.64644661 4.88214887 23.64644661 4 26 C3.32968281 24.0429132 2.66385317 22.08428887 2 20.125 C1.62875 19.03445312 1.2575 17.94390625 0.875 16.8203125 C0 14 0 14 0 12 C-0.66 12 -1.32 12 -2 12 C-3.76462683 8.91190305 -4 7.76687864 -4 4 C-4.99 3.67 -5.98 3.34 -7 3 C-8.6875 0.9375 -8.6875 0.9375 -10 -1 C-6.06329512 -2.31223496 -3.87511856 -1.24296256 0 0 Z " fill="#E4E5E7" transform="translate(175,106)"/>
<path d="M0 0 C0 0.66 0 1.32 0 2 C-1.92057292 2.16276042 -3.84114583 2.32552083 -5.76171875 2.48828125 C-8.11322737 2.88760751 -8.11322737 2.88760751 -10.21875 4.46875 C-14.01163452 6.55696732 -17.54885912 6.79794689 -21.8125 7.1875 C-22.60076172 7.26935547 -23.38902344 7.35121094 -24.20117188 7.43554688 C-26.13302376 7.63458616 -28.06639413 7.81879107 -30 8 C-29.67 8.99 -29.34 9.98 -29 11 C-28.93259135 12.56118428 -28.91485544 14.1250252 -28.9375 15.6875 C-28.94652344 16.49574219 -28.95554687 17.30398437 -28.96484375 18.13671875 C-28.97644531 18.75160156 -28.98804687 19.36648437 -29 20 C-29.66 20 -30.32 20 -31 20 C-31.33 16.37 -31.66 12.74 -32 9 C-32.33 11.97 -32.66 14.94 -33 18 C-33.33 18 -33.66 18 -34 18 C-34 16.02 -34 14.04 -34 12 C-34.66 11.67 -35.32 11.34 -36 11 C-35.34 11 -34.68 11 -34 11 C-34.33 10.34 -34.66 9.68 -35 9 C-37.34907875 8.31068656 -37.34907875 8.31068656 -40.0625 7.875 C-41.44115234 7.62363281 -41.44115234 7.62363281 -42.84765625 7.3671875 C-43.55792969 7.24601562 -44.26820312 7.12484375 -45 7 C-45 6.34 -45 5.68 -45 5 C-45.721875 4.855625 -46.44375 4.71125 -47.1875 4.5625 C-49.79166667 4.04166667 -52.39583333 3.52083333 -55 3 C-55 2.34 -55 1.68 -55 1 C-55.99 1 -56.98 1 -58 1 C-58 0.01 -58 -0.98 -58 -2 C-40.88784872 -4.71083585 -16.12125995 -8.06062997 0 0 Z " fill="#F0F0EE" transform="translate(146,68)"/>
<path d="M0 0 C0 0.66 0 1.32 0 2 C-0.66 2 -1.32 2 -2 2 C-2 2.66 -2 3.32 -2 4 C-2.804375 4.61875 -3.60875 5.2375 -4.4375 5.875 C-7.03064129 8.02540985 -7.65220835 8.75394458 -8 12 C-6.68 11.67 -5.36 11.34 -4 11 C-3.01 12.485 -3.01 12.485 -2 14 C-2.53625 14.598125 -3.0725 15.19625 -3.625 15.8125 C-11.35528059 26.18735026 -12.97033253 34.34682271 -13 47 C-13.33 47 -13.66 47 -14 47 C-14.33 45.35 -14.66 43.7 -15 42 C-18.3 42 -21.6 42 -25 42 C-25 41.34 -25 40.68 -25 40 C-26.485 40.495 -26.485 40.495 -28 41 C-28 39.68 -28 38.36 -28 37 C-25.36 37.33 -22.72 37.66 -20 38 C-19.95101562 37.27554688 -19.90203125 36.55109375 -19.8515625 35.8046875 C-19.44793848 30.58541133 -18.98724193 25.90186342 -17 21 C-17.515625 21.185625 -18.03125 21.37125 -18.5625 21.5625 C-21.85908739 22.15419517 -24.72245735 21.567267 -28 21 C-27.88541307 19.56163249 -27.75790884 18.12429034 -27.625 16.6875 C-27.55539063 15.88699219 -27.48578125 15.08648437 -27.4140625 14.26171875 C-27 12 -27 12 -25 9 C-24.67 10.32 -24.34 11.64 -24 13 C-20.37 13.33 -16.74 13.66 -13 14 C-12.34 12.35 -11.68 10.7 -11 9 C-9.59765625 7.05078125 -9.59765625 7.05078125 -8.0625 5.3125 C-7.55847656 4.73113281 -7.05445312 4.14976563 -6.53515625 3.55078125 C-4.5186997 1.51380097 -2.96463835 0 0 0 Z " fill="#BEC3C7" transform="translate(62,95)"/>
<path d="M0 0 C1.65 0.33 3.3 0.66 5 1 C4.01 1.495 4.01 1.495 3 2 C3.350625 2.969375 3.70125 3.93875 4.0625 4.9375 C5.07123386 8.50686597 4.82956296 11.40004144 4.296875 15.078125 C3.89059224 19.07680266 3.87745401 23.04568752 3.875 27.0625 C3.87064941 27.81829346 3.86629883 28.57408691 3.86181641 29.3527832 C3.87369475 34.31739301 4.2970606 39.08500307 5 44 C4.01 44.495 4.01 44.495 3 45 C2.505 43.515 2.505 43.515 2 42 C-0.37402417 40.19212694 -0.37402417 40.19212694 -3 39 C-3.99 39.495 -3.99 39.495 -5 40 C-6.76989025 33.90057742 -7.33663255 28.39970739 -7.3125 22.0625 C-7.32861328 21.22009766 -7.34472656 20.37769531 -7.36132812 19.50976562 C-7.36566167 13.88049383 -6.98066234 7.92796284 -4 3 C-1.8918457 2.25415039 -1.8918457 2.25415039 0 2 C0 1.34 0 0.68 0 0 Z " fill="#43484C" transform="translate(22,88)"/>
<path d="M0 0 C0.66 0.33 1.32 0.66 2 1 C2 4.3 2 7.6 2 11 C2.66 9.68 3.32 8.36 4 7 C7.625 5.75 7.625 5.75 11 5 C10.30183553 17.56696055 2.84120492 27.46082382 -6 36 C-5.34 36.33 -4.68 36.66 -4 37 C-6.28550284 41.84328579 -8.83036412 43.24461047 -13.6875 45.3125 C-14.86699219 45.82425781 -16.04648438 46.33601563 -17.26171875 46.86328125 C-18.16535156 47.23839844 -19.06898438 47.61351562 -20 48 C-20 47.34 -20 46.68 -20 46 C-20.928125 46.515625 -21.85625 47.03125 -22.8125 47.5625 C-26 49 -26 49 -29 48 C-28.03578125 47.52949219 -27.0715625 47.05898437 -26.078125 46.57421875 C-24.80197704 45.94552821 -23.52594126 45.31660993 -22.25 44.6875 C-21.29867187 44.2244043 -21.29867187 44.2244043 -20.328125 43.75195312 C-13.63408594 40.65050274 -13.63408594 40.65050274 -9.75 34.8125 C-9.5025 33.884375 -9.255 32.95625 -9 32 C-8.34 32 -7.68 32 -7 32 C-6.67 30.68 -6.34 29.36 -6 28 C-6.66 27.67 -7.32 27.34 -8 27 C-7.38125 25.845 -6.7625 24.69 -6.125 23.5 C-3.04724818 16.70056955 -2.68516297 9.34747137 -2 2 C-1.34 2 -0.68 2 0 2 C0 1.34 0 0.68 0 0 Z " fill="#4C4D51" transform="translate(182,128)"/>
<path d="M0 0 C-0.99 0.99 -1.98 1.98 -3 3 C-2.360625 3.2475 -1.72125 3.495 -1.0625 3.75 C1 5 1 5 1.625 7.0625 C1.74875 7.701875 1.8725 8.34125 2 9 C2.66 9.33 3.32 9.66 4 10 C1.10545522 11.93943036 -1.79086236 13.87619712 -4.6875 15.8125 C-5.50412109 16.35970703 -6.32074219 16.90691406 -7.16210938 17.47070312 C-11.05776573 20.07306466 -14.94623068 22.64699744 -19 25 C-20 20.25 -20 20.25 -20 18 C-22.31 17.34 -24.62 16.68 -27 16 C-21.62698005 10.08967805 -8.23493701 -2.744979 0 0 Z M-21 18 C-20.67 18.66 -20.34 19.32 -20 20 C-20.66 19.67 -21.32 19.34 -22 19 C-21.67 18.67 -21.34 18.34 -21 18 Z " fill="#8E9195" transform="translate(63,48)"/>
<path d="M0 0 C4.73498345 0 7.25432498 2.3236901 10.6875 5.4375 C14.09925276 9.2180909 15 10.85970539 15 16 C11.32589215 17.17571451 7.83070817 17.07366746 4 17 C4.28875 17.65226562 4.5775 18.30453125 4.875 18.9765625 C6.92067328 23.79241835 8.56219981 27.6591018 8 33 C6.58098603 30.23103912 5.32805831 27.43094895 4.125 24.5625 C1.78479611 19.28361022 1.78479611 19.28361022 -2 15 C-4.01740263 14.68918496 -4.01740263 14.68918496 -6.25 14.625 C-12.07198064 14.34500425 -15.11606234 11.05326465 -19 7 C-16.61209828 5.50409869 -15.37235258 4.96352945 -12.52734375 5.2421875 C-11.67269531 5.45101562 -10.81804687 5.65984375 -9.9375 5.875 C-7.13058161 6.54190693 -4.9005402 7 -2 7 C-0.5393715 4.35261084 0 3.10551666 0 0 Z " fill="#464C51" transform="translate(176,91)"/>
<path d="M0 0 C2 0.66666667 4 1.33333333 6 2 C6 2.66 6 3.32 6 4 C6.99 3.67 7.98 3.34 9 3 C8.67 4.65 8.34 6.3 8 8 C8.66 8 9.32 8 10 8 C9.52445506 12.27990445 7.01316405 14.12698311 4 17 C1.20935253 20.31033382 1.20935253 20.31033382 -1 24 C-4.63 23.67 -8.26 23.34 -12 23 C-13.23506251 16.82468746 -12.04405687 15.60507261 -8.8359375 10.58203125 C-6.15206217 6.80747467 -3.17709415 3.36508788 0 0 Z " fill="#4B5156" transform="translate(50,85)"/>
<path d="M0 0 C2.39567496 0.37559311 3.67656546 0.64835896 5.34375 2.4609375 C10.17576286 10.4598777 13.29452728 18.6524864 14 28 C12.68 28 11.36 28 10 28 C10 27.34 10 26.68 10 26 C9.360625 26.33 8.72125 26.66 8.0625 27 C6 28 6 28 5 28 C4.34 29.32 3.68 30.64 3 32 C2.84144531 31.23816406 2.68289062 30.47632812 2.51953125 29.69140625 C1.32288828 24.39576525 0.13054791 19.82526238 -2.75 15.1875 C-4.5829454 12.18912962 -5.32508634 10.44836537 -4.8125 6.9375 C-4.544375 5.968125 -4.27625 4.99875 -4 4 C-3.34 4 -2.68 4 -2 4 C-1.34 2.68 -0.68 1.36 0 0 Z " fill="#5A6063" transform="translate(199,76)"/>
<path d="M0 0 C-0.33 1.98 -0.66 3.96 -1 6 C1.49981738 6.1698905 3.99979601 6.33597953 6.5 6.5 C7.54414062 6.57154297 7.54414062 6.57154297 8.609375 6.64453125 C13.41695525 6.95613367 18.18228746 7.04340282 23 7 C23 7.33 23 7.66 23 8 C22.15574463 8.14248169 22.15574463 8.14248169 21.29443359 8.2878418 C10.73269301 10.10122399 0.68867189 12.03316477 -9.28515625 16.046875 C-12 17 -12 17 -16 17 C-16.66 16.67 -17.32 16.34 -18 16 C-17.67 14.68 -17.34 13.36 -17 12 C-18.65 11.67 -20.3 11.34 -22 11 C-18.89395092 5.2538092 -15.57572376 2.98666754 -9.5 0.75 C-8.5615625 0.39421875 -7.623125 0.0384375 -6.65625 -0.328125 C-3.92325523 -1.01941191 -2.60719656 -0.95925156 0 0 Z " fill="#B6B6BB" transform="translate(81,41)"/>
<path d="M0 0 C3.78806451 0.60636284 6.82895704 1.71161456 10.25 3.4375 C11.12140625 3.86933594 11.9928125 4.30117188 12.890625 4.74609375 C15 6 15 6 16 8 C15.01 8.495 15.01 8.495 14 9 C13.34444881 11.52733235 13.34444881 11.52733235 13 14 C13.66 14 14.32 14 15 14 C15 12.68 15 11.36 15 10 C15.66 10.33 16.32 10.66 17 11 C17.625 13.5625 17.625 13.5625 18 16 C16.68 15.67 15.36 15.34 14 15 C14.33 17.31 14.66 19.62 15 22 C12.2762894 20.64882592 9.57670542 19.26037409 6.890625 17.8359375 C6.13652344 17.43632813 5.38242188 17.03671875 4.60546875 16.625 C3.82816406 16.2125 3.05085937 15.8 2.25 15.375 C1.45722656 14.95476563 0.66445312 14.53453125 -0.15234375 14.1015625 C-2.10178365 13.06812448 -4.05099451 12.03425699 -6 11 C-4.00669355 4.61451613 -4.00669355 4.61451613 -1 2 C-0.67 1.34 -0.34 0.68 0 0 Z " fill="#BABBBF" transform="translate(161,45)"/>
<path d="M0 0 C1.04414063 0.64066406 2.08828125 1.28132813 3.1640625 1.94140625 C4.22367188 2.57949219 5.28328125 3.21757813 6.375 3.875 C7.17164063 4.41253906 7.96828125 4.95007813 8.7890625 5.50390625 C8.7890625 5.83390625 8.7890625 6.16390625 8.7890625 6.50390625 C2.63535411 8.32722725 -2.80740428 8.74010215 -9.2109375 8.50390625 C-8.2209375 10.48390625 -7.2309375 12.46390625 -6.2109375 14.50390625 C-14.57020902 11.77211817 -14.57020902 11.77211817 -17.8984375 10.37890625 C-20.64008462 9.34152626 -23.31438075 8.90807696 -26.2109375 8.50390625 C-25.2209375 7.84390625 -24.2309375 7.18390625 -23.2109375 6.50390625 C-24.8609375 6.17390625 -26.5109375 5.84390625 -28.2109375 5.50390625 C-28.2109375 4.84390625 -28.2109375 4.18390625 -28.2109375 3.50390625 C-21.7759375 3.00890625 -21.7759375 3.00890625 -15.2109375 2.50390625 C-15.2109375 1.84390625 -15.2109375 1.18390625 -15.2109375 0.50390625 C-9.63980451 -1.61843013 -5.55271483 -2.58721384 0 0 Z " fill="#908D93" transform="translate(164.2109375,75.49609375)"/>
<path d="M0 0 C3 1 3 1 5 3 C5.99 3.33 6.98 3.66 8 4 C8 5.32 8 6.64 8 8 C10.31 8.66 12.62 9.32 15 10 C15.33 11.65 15.66 13.3 16 15 C17.32 15 18.64 15 20 15 C20 19.95 20 24.9 20 30 C19.67 28.68 19.34 27.36 19 26 C18.34 26 17.68 26 17 26 C17 24.68 17 23.36 17 22 C14.69 22 12.38 22 10 22 C10 21.01 10 20.02 10 19 C9.34 19 8.68 19 8 19 C8 18.34 8 17.68 8 17 C6.68 17 5.36 17 4 17 C4 16.34 4 15.68 4 15 C3.34 15 2.68 15 2 15 C1.46706165 13.25364835 0.94909337 11.50272348 0.4375 9.75 C0.14746094 8.77546875 -0.14257812 7.8009375 -0.44140625 6.796875 C-0.99249836 4.03756068 -0.93789609 2.6087176 0 0 Z " fill="#A2A2A3" transform="translate(93,89)"/>
<path d="M0 0 C2.35395045 0.54260553 4.70812633 1.08423378 7.0625 1.625 C9.04175056 2.08297092 11.02094662 2.54117773 13 3 C9.99559979 5.00293347 8.29006055 5.49271626 4.8125 6.125 C3.91144531 6.29257813 3.01039062 6.46015625 2.08203125 6.6328125 C1.39496094 6.75398438 0.70789063 6.87515625 0 7 C0.66 7.66 1.32 8.32 2 9 C-1.96 9.66 -5.92 10.32 -10 11 C-8.68 9.68 -7.36 8.36 -6 7 C-10.22825808 4.18116128 -14.21940855 4.90213892 -19.10742188 5.078125 C-22.92969138 5.16314304 -25.76135022 5.16473719 -29 3 C-27.54195831 2.18697675 -26.08355685 1.37459869 -24.625 0.5625 C-23.40683594 -0.11619141 -23.40683594 -0.11619141 -22.1640625 -0.80859375 C-15.21229005 -4.63583309 -7.41758852 -1.77204259 0 0 Z " fill="#B9B5B5" transform="translate(88,75)"/>
<path d="M0 0 C7.90709331 0.645477 15.39133967 2.86997139 23 5 C21.375 10.75 21.375 10.75 18 13 C17.63837971 14.32594105 17.30271961 15.65938457 17 17 C14.22057978 18.38971011 12.92961386 17.58597169 10 16.6875 C9.113125 16.42324219 8.22625 16.15898438 7.3125 15.88671875 C5 15 5 15 3 13 C4.98 13 6.96 13 9 13 C8.34 12.649375 7.68 12.29875 7 11.9375 C5 10 5 10 4.75 6.3125 C4.8325 5.219375 4.915 4.12625 5 3 C2.525 2.01 2.525 2.01 0 1 C0 0.67 0 0.34 0 0 Z " fill="#D1D4D8" transform="translate(139,38)"/>
<path d="M0 0 C0 0.66 0 1.32 0 2 C0.99 2 1.98 2 3 2 C3 2.66 3 3.32 3 4 C4.0828125 3.938125 4.0828125 3.938125 5.1875 3.875 C8.20729369 4.00921305 10.26935729 4.75170619 13 6 C13 6.66 13 7.32 13 8 C16.3 8.33 19.6 8.66 23 9 C23.495 10.485 23.495 10.485 24 12 C21.70954632 12.22127098 19.41755236 12.4266504 17.125 12.625 C15.84882812 12.74101563 14.57265625 12.85703125 13.2578125 12.9765625 C12.18273437 12.98429687 11.10765625 12.99203125 10 13 C9.34 12.34 8.68 11.68 8 11 C5.33442657 10.26406994 2.69380281 9.6102049 0 9 C-1.42799334 8.64688912 -2.85509502 8.29015144 -4.28125 7.9296875 C-4.97734375 7.75566406 -5.6734375 7.58164063 -6.390625 7.40234375 C-9.59375 6.6015625 -12.796875 5.80078125 -16 5 C-12.04477421 1.04477421 -5.5114368 -0.53336485 0 0 Z " fill="#D8D7D5" transform="translate(88,67)"/>
<path d="M0 0 C0.66 0 1.32 0 2 0 C2 0.66 2 1.32 2 2 C5.3 1.67 8.6 1.34 12 1 C13.96292988 6.58680041 15.47398368 12.28252551 17 18 C16.01 18 15.02 18 14 18 C13.34 17.34 12.68 16.68 12 16 C11.34 16 10.68 16 10 16 C9.67 17.32 9.34 18.64 9 20 C0 7.15533981 0 7.15533981 0 0 Z " fill="#393C41" transform="translate(35,135)"/>
<path d="M0 0 C0.99 1.485 0.99 1.485 2 3 C4.12376704 3.61824717 4.12376704 3.61824717 6.5 3.75 C7.69109375 3.86601563 7.69109375 3.86601563 8.90625 3.984375 C11.06054111 4.15884436 11.06054111 4.15884436 13 3 C12.86722656 3.51046875 12.73445313 4.0209375 12.59765625 4.546875 C11.81286658 7.76810318 11.12807219 11.0073132 10.4375 14.25 C10.16808594 15.51328125 9.89867187 16.7765625 9.62109375 18.078125 C9.41613281 19.04234375 9.21117187 20.0065625 9 21 C6.03 21 3.06 21 0 21 C0 14.07 0 7.14 0 0 Z " fill="#E1E3E7" transform="translate(33,112)"/>
<path d="M0 0 C1.65 1.32 3.3 2.64 5 4 C5.66 3.67 6.32 3.34 7 3 C7 4.65 7 6.3 7 8 C7.66 8 8.32 8 9 8 C9 6.35 9 4.7 9 3 C10.98 3 12.96 3 15 3 C14.65697965 8.98511371 14.17692157 13.75117306 11 19 C10.34 19 9.68 19 9 19 C9 19.99 9 20.98 9 22 C8.34 22 7.68 22 7 22 C7 21.01 7 20.02 7 19 C6.37609375 18.81308594 5.7521875 18.62617188 5.109375 18.43359375 C3 17 3 17 1.953125 13.84765625 C1.72109375 12.59855469 1.4890625 11.34945312 1.25 10.0625 C1.00765625 8.81597656 0.7653125 7.56945312 0.515625 6.28515625 C0 3 0 3 0 0 Z " fill="#5A5658" transform="translate(106,157)"/>
<path d="M0 0 C0.8971875 0.5259375 0.8971875 0.5259375 1.8125 1.0625 C4.10813214 2.33304698 4.10813214 2.33304698 7 1 C7 1.66 7 2.32 7 3 C8.32 3 9.64 3 11 3 C11.05394705 5.60444348 11.09364469 8.20776998 11.125 10.8125 C11.14175781 11.55048828 11.15851563 12.28847656 11.17578125 13.04882812 C11.21074628 16.91246426 11.19397555 18.70903668 9 22 C8.34 20.68 7.68 19.36 7 18 C6.566875 18.495 6.13375 18.99 5.6875 19.5 C4 21 4 21 1 21 C1.01160156 19.73542969 1.02320313 18.47085938 1.03515625 17.16796875 C1.04453566 15.50781398 1.0536357 13.84765761 1.0625 12.1875 C1.07087891 11.35412109 1.07925781 10.52074219 1.08789062 9.66210938 C1.09111328 8.85966797 1.09433594 8.05722656 1.09765625 7.23046875 C1.10289307 6.49207764 1.10812988 5.75368652 1.11352539 4.99291992 C1.07523213 2.78942591 1.07523213 2.78942591 0 0 Z " fill="#474C50" transform="translate(202,101)"/>
<path d="M0 0 C2.1875 0.3125 2.1875 0.3125 5.6875 1.375 C5.6875 2.365 5.6875 3.355 5.6875 4.375 C6.1515625 5.7053125 6.1515625 5.7053125 6.625 7.0625 C6.71277387 11.71451532 4.56129873 13.38335671 1.44921875 16.640625 C0.86785156 17.21296875 0.28648438 17.7853125 -0.3125 18.375 C-0.9725 19.035 -1.6325 19.695 -2.3125 20.375 C-4.2203584 17.2000906 -4.4734041 15.26914789 -3.9375 11.625 C-3.82664062 10.82578125 -3.71578125 10.0265625 -3.6015625 9.203125 C-3.45847656 8.29820313 -3.45847656 8.29820313 -3.3125 7.375 C-5.5898501 10.19009993 -5.5898501 10.19009993 -5.3125 13.375 C-6.3025 13.045 -7.2925 12.715 -8.3125 12.375 C-8.3125 11.715 -8.3125 11.055 -8.3125 10.375 C-8.9725 10.045 -9.6325 9.715 -10.3125 9.375 C-3.90532511 0.63329596 -3.90532511 0.63329596 0 0 Z M5.6875 2.375 C6.3475 3.035 7.0075 3.695 7.6875 4.375 C7.0275 4.375 6.3675 4.375 5.6875 4.375 C5.6875 3.715 5.6875 3.055 5.6875 2.375 Z " fill="#697275" transform="translate(37.3125,63.625)"/>
<path d="M0 0 C0.66 0 1.32 0 2 0 C1.625 2.4375 1.625 2.4375 1 5 C0.34 5.33 -0.32 5.66 -1 6 C-1.2784375 6.77859375 -1.556875 7.5571875 -1.84375 8.359375 C-3.23634306 11.53975645 -4.57679455 12.44672391 -7.5 14.25 C-8.2940625 14.75015625 -9.088125 15.2503125 -9.90625 15.765625 C-11.2454474 16.55515183 -12.60951741 17.3047587 -14 18 C-13.34 18 -12.68 18 -12 18 C-12 18.66 -12 19.32 -12 20 C-24.67606024 24.43452933 -36.4065626 28.44568647 -50 28 C-46.32619404 25.86560374 -42.40935591 25.0615057 -38.3125 24.125 C-32.20064104 22.65227944 -26.56413733 20.99687999 -21 18 C-20.18144531 17.56945312 -19.36289063 17.13890625 -18.51953125 16.6953125 C-11.68775903 12.87117374 -5.96857311 8.16616373 -1.40234375 1.7578125 C-0.93957031 1.17773438 -0.47679687 0.59765625 0 0 Z " fill="#333335" transform="translate(174,156)"/>
<path d="M0 0 C0 0.66 0 1.32 0 2 C0.99 2.33 1.98 2.66 3 3 C6.78702812 8.11901733 7.71214171 13.78226091 8 20 C6.68 20 5.36 20 4 20 C3.67 20.66 3.34 21.32 3 22 C2.01 18.7 1.02 15.4 0 12 C-0.66 12 -1.32 12 -2 12 C-3.76462683 8.91190305 -4 7.76687864 -4 4 C-4.99 3.67 -5.98 3.34 -7 3 C-8.6875 0.9375 -8.6875 0.9375 -10 -1 C-6.06329512 -2.31223496 -3.87511856 -1.24296256 0 0 Z " fill="#DFE1E2" transform="translate(175,106)"/>
<path d="M0 0 C1.00675781 -0.02449219 2.01351562 -0.04898438 3.05078125 -0.07421875 C10.48715529 -0.10384574 10.48715529 -0.10384574 13.8203125 2.3984375 C14.25085938 3.05070312 14.68140625 3.70296875 15.125 4.375 C14.526875 4.643125 13.92875 4.91125 13.3125 5.1875 C11.06989213 6.2444745 11.06989213 6.2444745 9.625 8.0625 C9.13 8.495625 8.635 8.92875 8.125 9.375 C5.9375 9.0625 5.9375 9.0625 4.125 8.375 C4.785 8.375 5.445 8.375 6.125 8.375 C5.795 7.715 5.465 7.055 5.125 6.375 C2.815 6.375 0.505 6.375 -1.875 6.375 C-1.875 6.705 -1.875 7.035 -1.875 7.375 C-5.175 7.375 -8.475 7.375 -11.875 7.375 C-12.5 5 -12.5 5 -12.875 2.375 C-9.44820789 -1.05179211 -4.64577613 0.00590315 0 0 Z " fill="#7F7C7F" transform="translate(67.875,78.625)"/>
<path d="M0 0 C1.33333333 1.33333333 2.66666667 2.66666667 4 4 C4.8971875 4.86625 4.8971875 4.86625 5.8125 5.75 C7.7410871 7.73368959 9.51972502 9.77009009 11.3125 11.875 C16.23838392 17.53766143 21.67622935 21.98980398 28 26 C27.34 26.33 26.68 26.66 26 27 C23.5614692 25.91486886 21.27320951 24.77755845 18.9375 23.5 C18.26227295 23.13414795 17.5870459 22.7682959 16.89135742 22.39135742 C9.8661784 18.50081244 2.25281182 14.02638475 -2 7 C-2.25 4.1875 -2.25 4.1875 -2 2 C-1.34 2 -0.68 2 0 2 C0 1.34 0 0.68 0 0 Z " fill="#2F3134" transform="translate(47,149)"/>
<path d="M0 0 C5.94 0 11.88 0 18 0 C18 0.66 18 1.32 18 2 C20.31 2.33 22.62 2.66 25 3 C23.68 3.33 22.36 3.66 21 4 C21 4.66 21 5.32 21 6 C18.62524166 6.48039005 16.25020845 6.95934474 13.875 7.4375 C13.20984375 7.57220703 12.5446875 7.70691406 11.859375 7.84570312 C7.91653193 8.63813727 3.97087879 9.36292755 0 10 C0 6.7 0 3.4 0 0 Z " fill="#F1F3F0" transform="translate(115,65)"/>
<path d="M0 0 C2.09230769 4.43076923 2.09230769 4.43076923 1.625 7.3125 C1.315625 8.1478125 1.315625 8.1478125 1 9 C0.34 8.01 -0.32 7.02 -1 6 C-5.59295252 4.96658568 -8.205265 6.56007566 -12 8.9375 C-13.28003906 9.75927734 -13.28003906 9.75927734 -14.5859375 10.59765625 C-17.37341619 12.21691976 -19.78418022 12.83074633 -23 13 C-23.33 11.68 -23.66 10.36 -24 9 C-23.0409375 8.5978125 -23.0409375 8.5978125 -22.0625 8.1875 C-19.66868314 7.11332248 -19.66868314 7.11332248 -19 4 C-12.85421099 0.77049048 -6.87162706 -0.51861336 0 0 Z " fill="#5E656A" transform="translate(91,84)"/>
<path d="M0 0 C3.57107403 1.33040013 6.70226642 2.92889527 9.9375 4.9375 C15.87421329 8.53630407 20.96694037 11.1043954 27.77734375 12.46875 C31.01701634 13.24308299 33.94289024 14.6898101 37 16 C45.49312981 18.61708875 54.21809604 18.4032917 63.02148438 18.56640625 C64.71047852 18.61087891 64.71047852 18.61087891 66.43359375 18.65625 C67.45509521 18.67494141 68.47659668 18.69363281 69.52905273 18.71289062 C72 19 72 19 74 21 C59.64528514 21.33745261 46.02873187 21.29909768 32 18 C31.27312988 17.84241211 30.54625977 17.68482422 29.79736328 17.52246094 C27.84889352 17.08043295 25.92173404 16.54668221 24 16 C23.67 15.34 23.34 14.68 23 14 C19.78728047 12.30377396 16.53777137 10.73676493 13.25390625 9.18554688 C8.44807251 6.86287584 4.22915854 4.26899525 0 1 C0 0.67 0 0.34 0 0 Z " fill="#545455" transform="translate(52,164)"/>
<path d="M0 0 C0.66 0.33 1.32 0.66 2 1 C2 4.3 2 7.6 2 11 C2.66 9.68 3.32 8.36 4 7 C7.625 5.75 7.625 5.75 11 5 C10.50341703 10.66104589 9.45489316 14.87674471 7 20 C6.67 19.34 6.34 18.68 6 18 C3.47266765 17.34444881 3.47266765 17.34444881 1 17 C0.34 18.98 -0.32 20.96 -1 23 C-2.00582207 19.9825338 -1.99026621 18.89459413 -1.5 15.875 C-1.335 14.59625 -1.17 13.3175 -1 12 C-1.33 11.67 -1.66 11.34 -2 11 C-2.07179964 9.48071962 -2.08392007 7.95832518 -2.0625 6.4375 C-2.05347656 5.61121094 -2.04445312 4.78492188 -2.03515625 3.93359375 C-2.02355469 3.29550781 -2.01195312 2.65742188 -2 2 C-1.34 2 -0.68 2 0 2 C0 1.34 0 0.68 0 0 Z " fill="#4E4E51" transform="translate(182,128)"/>
<path d="M0 0 C0.66 0 1.32 0 2 0 C1.79503906 0.79664062 1.59007812 1.59328125 1.37890625 2.4140625 C1.10949219 3.47367187 0.84007812 4.53328125 0.5625 5.625 C0.29566406 6.66914062 0.02882812 7.71328125 -0.24609375 8.7890625 C-0.96452539 11.84891124 -1.51976716 14.8948051 -2 18 C-2.33 18 -2.66 18 -3 18 C-3 16.02 -3 14.04 -3 12 C-3.99 12 -4.98 12 -6 12 C-6 12.66 -6 13.32 -6 14 C-8.63892176 15.78305524 -10.97178863 16.99059621 -14 18 C-14.6837045 19.32467746 -15.34964186 20.65863633 -16 22 C-16.99 22.66 -17.98 23.32 -19 24 C-19.33 21.03 -19.66 18.06 -20 15 C-17.35648981 13.36724371 -14.72989292 11.86770266 -11.9375 10.5 C-9.02230461 9.11665508 -9.02230461 9.11665508 -6.75 7.3125 C-5 6 -5 6 -3 6 C-2.690625 5.38125 -2.38125 4.7625 -2.0625 4.125 C-1.375 2.75 -0.6875 1.375 0 0 Z " fill="#A2A1A3" transform="translate(134,92)"/>
<path d="M0 0 C0.66 0.66 1.32 1.32 2 2 C2.639375 2.309375 3.27875 2.61875 3.9375 2.9375 C8.62439699 5.35196209 10.0838884 8.96606064 12.1875 13.6875 C12.71730469 14.86699219 13.24710938 16.04648438 13.79296875 17.26171875 C14.19128906 18.16535156 14.58960938 19.06898438 15 20 C13.35 21.32 11.7 22.64 10 24 C8.53623754 21.77423775 7.07892459 19.54467564 5.625 17.3125 C5.2125 16.68666016 4.8 16.06082031 4.375 15.41601562 C-1.23636123 6.77270922 -1.23636123 6.77270922 -0.625 2.1875 C-0.41875 1.465625 -0.2125 0.74375 0 0 Z " fill="#363739" transform="translate(19,126)"/>
<path d="M0 0 C3.35414799 -0.02929977 6.70826253 -0.0468989 10.0625 -0.0625 C11.00544922 -0.07087891 11.94839844 -0.07925781 12.91992188 -0.08789062 C18.0630768 -0.10581103 22.93258427 0.10740389 28 1 C28 1.33 28 1.66 28 2 C22.39 1.67 16.78 1.34 11 1 C11.33 3.97 11.66 6.94 12 10 C14.50363005 9.50374476 17.00417148 8.99910704 19.5 8.46484375 C20.325 8.29082031 21.15 8.11679688 22 7.9375 C22.825 7.76089844 23.65 7.58429688 24.5 7.40234375 C27.04443314 6.99284904 29.42756484 6.93109549 32 7 C32.33 6.01 32.66 5.02 33 4 C31.68 3.34 30.36 2.68 29 2 C33.82360189 1.80705592 37.49646738 2.24252386 42 4 C42 4.66 42 5.32 42 6 C40.07942708 6.16276042 38.15885417 6.32552083 36.23828125 6.48828125 C33.88677263 6.88760751 33.88677263 6.88760751 31.78125 8.46875 C27.98836548 10.55696732 24.45114088 10.79794689 20.1875 11.1875 C19.39923828 11.26935547 18.61097656 11.35121094 17.79882812 11.43554688 C15.86697624 11.63458616 13.93360587 11.81879107 12 12 C12.33 12.99 12.66 13.98 13 15 C13.06740865 16.56118428 13.08514456 18.1250252 13.0625 19.6875 C13.05347656 20.49574219 13.04445313 21.30398437 13.03515625 22.13671875 C13.02355469 22.75160156 13.01195313 23.36648437 13 24 C12.34 24 11.68 24 11 24 C10.34 16.41 9.68 8.82 9 1 C6.03 1 3.06 1 0 1 C0 0.67 0 0.34 0 0 Z " fill="#E2E4E2" transform="translate(104,64)"/>
<path d="M0 0 C0.33 0 0.66 0 1 0 C1.33 7.92 1.66 15.84 2 24 C3.65 22.68 5.3 21.36 7 20 C10.8125 19.25 10.8125 19.25 14 19 C14 18.01 14 17.02 14 16 C14.99 15.67 15.98 15.34 17 15 C18.39712274 13.04402816 19.73779907 11.04563599 21 9 C21.33 9.66 21.66 10.32 22 11 C20.35452079 15.67662513 18.82451903 18.73791024 15 22 C14.195625 22.70125 13.39125 23.4025 12.5625 24.125 C10.07784703 25.94303876 7.85871122 26.91832549 5 28 C4.34 28.66 3.68 29.32 3 30 C2.01 30 1.02 30 0 30 C0 20.1 0 10.2 0 0 Z " fill="#BEC0C1" transform="translate(114,77)"/>
<path d="M0 0 C0.79921875 0.29648438 1.5984375 0.59296875 2.421875 0.8984375 C3.02515625 1.13820313 3.6284375 1.37796875 4.25 1.625 C4.25 1.955 4.25 2.285 4.25 2.625 C0.62 3.285 -3.01 3.945 -6.75 4.625 C-6.75 5.285 -6.75 5.945 -6.75 6.625 C-11.15914783 7.72728696 -15.23382401 7.70154536 -19.75 7.625 C-19.75 8.285 -19.75 8.945 -19.75 9.625 C-23.38 8.965 -27.01 8.305 -30.75 7.625 C-27.84907498 5.69104999 -26.85325263 5.32368059 -23.5625 5 C-22.304375 4.87625 -21.04625 4.7525 -19.75 4.625 C-19.75 3.965 -19.75 3.305 -19.75 2.625 C-19.00234375 2.50382812 -18.2546875 2.38265625 -17.484375 2.2578125 C-16.49953125 2.09023437 -15.5146875 1.92265625 -14.5 1.75 C-13.52546875 1.58757812 -12.5509375 1.42515625 -11.546875 1.2578125 C-8.78252126 0.77174417 -8.78252126 0.77174417 -6.6875 -0.53125 C-3.99530892 -1.70365579 -2.69411307 -1.03010206 0 0 Z " fill="#BCBAB9" transform="translate(155.75,71.375)"/>
<path d="M0 0 C3.75148379 0.46471083 6.23944956 2.38381218 9.25 4.5625 C10.14203125 5.20316406 11.0340625 5.84382813 11.953125 6.50390625 C12.96632812 7.24447266 12.96632812 7.24447266 14 8 C13.67 8.66 13.34 9.32 13 10 C10.4375 10.625 10.4375 10.625 8 11 C7.67 12.65 7.34 14.3 7 16 C6.01 16.33 5.02 16.66 4 17 C2 15.375 2 15.375 0 13 C-0.25 9.75 -0.25 9.75 0 7 C0.99 7 1.98 7 3 7 C2.34 5.35 1.68 3.7 1 2 C1 3.32 1 4.64 1 6 C0.34 6 -0.32 6 -1 6 C-1.042721 4.33388095 -1.04063832 2.66617115 -1 1 C-0.67 0.67 -0.34 0.34 0 0 Z " fill="#95979B" transform="translate(175,53)"/>
<path d="M0 0 C0.66 1.32 1.32 2.64 2 4 C-3.98195664 11.49275798 -11.02248347 17.68165565 -19 23 C-19.99 22.67 -20.98 22.34 -22 22 C-20.88200014 20.66079162 -19.75538103 19.32877444 -18.625 18 C-17.68527344 16.88625 -17.68527344 16.88625 -16.7265625 15.75 C-15.87191406 14.88375 -15.87191406 14.88375 -15 14 C-14.34 14 -13.68 14 -13 14 C-13 13.34 -13 12.68 -13 12 C-11.35570171 10.31126121 -9.68615782 8.64694485 -8 7 C-7.484375 6.236875 -6.96875 5.47375 -6.4375 4.6875 C-5.963125 4.130625 -5.48875 3.57375 -5 3 C-3.68 3 -2.36 3 -1 3 C-0.67 2.01 -0.34 1.02 0 0 Z " fill="#37383D" transform="translate(197,145)"/>
<path d="M0 0 C0.21398438 0.64453125 0.42796875 1.2890625 0.6484375 1.953125 C1.8473523 4.27839115 1.8473523 4.27839115 4.6015625 4.609375 C5.59929688 4.65578125 6.59703125 4.7021875 7.625 4.75 C9.12933594 4.83507812 9.12933594 4.83507812 10.6640625 4.921875 C11.43492188 4.94765625 12.20578125 4.9734375 13 5 C13.33 4.01 13.66 3.02 14 2 C14.66 2.33 15.32 2.66 16 3 C15.37755401 4.27208622 14.75193233 5.54261882 14.125 6.8125 C13.77695312 7.52019531 13.42890625 8.22789063 13.0703125 8.95703125 C12 11 12 11 10 14 C9.67 13.34 9.34 12.68 9 12 C8.2265625 12.2784375 8.2265625 12.2784375 7.4375 12.5625 C4.14091261 13.15419517 1.27754265 12.567267 -2 12 C-1.85831863 10.56208484 -1.71148957 9.1246763 -1.5625 7.6875 C-1.48128906 6.88699219 -1.40007813 6.08648437 -1.31640625 5.26171875 C-1 3 -1 3 0 0 Z " fill="#D0D4D9" transform="translate(36,104)"/>
<path d="M0 0 C1.75 0.125 1.75 0.125 4 1 C6.3125 3.8125 6.3125 3.8125 8 7 C7.75 9.375 7.75 9.375 7 11 C4.69 11.33 2.38 11.66 0 12 C-0.33 13.32 -0.66 14.64 -1 16 C-3.0625 13.9375 -3.0625 13.9375 -5 11 C-4.75 7.1875 -4.75 7.1875 -4 4 C-3.34 4 -2.68 4 -2 4 C-1.34 2.68 -0.68 1.36 0 0 Z " fill="#666C6F" transform="translate(199,76)"/>
<path d="M0 0 C2.3125 -0.25 2.3125 -0.25 5 0 C8.11081018 2.88860945 8.53256152 5.88654141 9 10 C7.88625 10.28875 6.7725 10.5775 5.625 10.875 C1.99708908 11.69241329 1.99708908 11.69241329 0 14 C-1.70884005 12.37660195 -3.37446717 10.70680947 -5 9 C-5 8.34 -5 7.68 -5 7 C-4.34 7 -3.68 7 -3 7 C-2.67 5.35 -2.34 3.7 -2 2 C-1.34 2 -0.68 2 0 2 C0 1.34 0 0.68 0 0 Z " fill="#82878D" transform="translate(185,62)"/>
<path d="M0 0 C3 1 3 1 5 3 C5.99 3.33 6.98 3.66 8 4 C8 5.32 8 6.64 8 8 C10.31 8.66 12.62 9.32 15 10 C15.33 11.65 15.66 13.3 16 15 C17.32 15 18.64 15 20 15 C20 17.64 20 20.28 20 23 C19.67 23 19.34 23 19 23 C19 21.02 19 19.04 19 17 C17.35 17 15.7 17 14 17 C13.67 15.68 13.34 14.36 13 13 C12.36191406 13.01160156 11.72382812 13.02320312 11.06640625 13.03515625 C10.24011719 13.04417969 9.41382812 13.05320312 8.5625 13.0625 C7.32693359 13.07990234 7.32693359 13.07990234 6.06640625 13.09765625 C4 13 4 13 3 12 C2.95907063 9.66702567 2.95758277 7.33294775 3 5 C2.01 4.67 1.02 4.34 0 4 C0 2.68 0 1.36 0 0 Z " fill="#B9B9BB" transform="translate(93,89)"/>
<path d="M0 0 C0.99 0 1.98 0 3 0 C3 3.3 3 6.6 3 10 C2.01 9.01 1.02 8.02 0 7 C-1.31587941 8.12104533 -2.62760353 9.24696965 -3.9375 10.375 C-4.66839844 11.00148438 -5.39929688 11.62796875 -6.15234375 12.2734375 C-8.08380906 13.87747714 -8.08380906 13.87747714 -9 16 C-10.32 16 -11.64 16 -13 16 C-13.33 13.36 -13.66 10.72 -14 8 C-13.01 9.485 -13.01 9.485 -12 11 C-11.443125 10.2575 -10.88625 9.515 -10.3125 8.75 C-8.04540196 6.05399151 -5.89247608 4.00248344 -3 2 C-2.01 2 -1.02 2 0 2 C0 1.34 0 0.68 0 0 Z " fill="#929094" transform="translate(128,104)"/>
<path d="M0 0 C0.763125 0.20625 1.52625 0.4125 2.3125 0.625 C2.003125 1.223125 1.69375 1.82125 1.375 2.4375 C0.21040296 4.71456772 0.21040296 4.71456772 -0.6875 7.625 C-0.0275 7.625 0.6325 7.625 1.3125 7.625 C1.3125 6.305 1.3125 4.985 1.3125 3.625 C1.9725 3.955 2.6325 4.285 3.3125 4.625 C3.9375 7.1875 3.9375 7.1875 4.3125 9.625 C2.9925 9.295 1.6725 8.965 0.3125 8.625 C0.6425 10.935 0.9725 13.245 1.3125 15.625 C-1.88374262 14.08662154 -4.90355574 12.33633468 -7.9375 10.5 C-8.82953125 9.96117187 -9.7215625 9.42234375 -10.640625 8.8671875 C-11.31609375 8.45726562 -11.9915625 8.04734375 -12.6875 7.625 C-9.6875 6.625 -9.6875 6.625 -7.6875 6.625 C-7.419375 5.84125 -7.15125 5.0575 -6.875 4.25 C-5.2732531 0.70929632 -3.95286172 -0.5515621 0 0 Z " fill="#AAABB0" transform="translate(174.6875,51.375)"/>
<path d="M0 0 C2.06198638 0.33649594 4.12446068 0.67002102 6.1875 1 C8.91796875 1.4375 8.91796875 1.4375 11 2 C11.33 2.66 11.66 3.32 12 4 C11.01 4.495 11.01 4.495 10 5 C10.66 5.66 11.32 6.32 12 7 C8.04 7.66 4.08 8.32 0 9 C1.32 7.68 2.64 6.36 4 5 C-0.22825808 2.18116128 -4.21940855 2.90213892 -9.10742188 3.078125 C-12.92969138 3.16314304 -15.76135022 3.16473719 -19 1 C-12.32133977 -2.94648104 -7.33972532 -1.57344793 0 0 Z " fill="#A09E9E" transform="translate(78,77)"/>
<path d="M0 0 C-1 2 -1 2 -3.5625 3.125 C-7.58289462 4.14837318 -10.86509813 4.14258282 -15 4 C-15 4.66 -15 5.32 -15 6 C-26.52164009 9.44419134 -26.52164009 9.44419134 -32 9 C-32 8.34 -32 7.68 -32 7 C-30.6875 6.5625 -29.375 6.125 -28.0625 5.6875 C-27.24910156 5.41550781 -26.43570313 5.14351563 -25.59765625 4.86328125 C-23.87837212 4.29191013 -22.15702486 3.72670669 -20.43359375 3.16796875 C-19.63050781 2.90628906 -18.82742187 2.64460938 -18 2.375 C-17.2575 2.13523437 -16.515 1.89546875 -15.75 1.6484375 C-13.99892467 1.13804735 -13.99892467 1.13804735 -13 0 C-8.33413434 -0.77764428 -4.61918716 -1.29914639 0 0 Z " fill="#D2D2D1" transform="translate(151,70)"/>
<path d="M0 0 C0.99 0.33 1.98 0.66 3 1 C4.1875 4.5625 4.1875 4.5625 5 8 C2.81321095 10.52709628 0.62767838 12.92608855 -2 15 C-4.9375 14.9375 -4.9375 14.9375 -7 14 C-7.33 14.66 -7.66 15.32 -8 16 C-9 13 -9 13 -7.8125 10.4375 C-5.97998043 7.97307714 -4.82554579 7.07175875 -2 6 C-2 5.34 -2 4.68 -2 4 C-1.34 4 -0.68 4 0 4 C0 3.34 0 2.68 0 2 C-0.66 1.67 -1.32 1.34 -2 1 C-1.34 0.67 -0.68 0.34 0 0 Z " fill="#7B7F84" transform="translate(62,93)"/>
<path d="M0 0 C0 1.98 0 3.96 0 6 C-0.78375 6.061875 -1.5675 6.12375 -2.375 6.1875 C-3.24125 6.455625 -4.1075 6.72375 -5 7 C-6.37466625 9.47636012 -6.37466625 9.47636012 -7 12 C-7.33 11.34 -7.66 10.68 -8 10 C-8.99 10.33 -9.98 10.66 -11 11 C-11.33 11.99 -11.66 12.98 -12 14 C-13.32 14 -14.64 14 -16 14 C-16.33 12.02 -16.66 10.04 -17 8 C-17.99 8 -18.98 8 -20 8 C-20 7.34 -20 6.68 -20 6 C-18.35 6 -16.7 6 -15 6 C-14.67 5.01 -14.34 4.02 -14 3 C-14 3.99 -14 4.98 -14 6 C-12.02 6 -10.04 6 -8 6 C-8 5.34 -8 4.68 -8 4 C-1.125 0 -1.125 0 0 0 Z " fill="#44484D" transform="translate(128,122)"/>
<path d="M0 0 C0.66 0.33 1.32 0.66 2 1 C1.67 3.97 1.34 6.94 1 10 C1.66 8.68 2.32 7.36 3 6 C4.65 6.33 6.3 6.66 8 7 C7.63287028 9.71675995 7.27255401 11.61063713 5.6875 13.875 C4 15 4 15 1.8125 14.6875 C1.214375 14.460625 0.61625 14.23375 0 14 C-0.66 15.32 -1.32 16.64 -2 18 C-3.32 17.34 -4.64 16.68 -6 16 C-5.73445312 15.43152344 -5.46890625 14.86304688 -5.1953125 14.27734375 C-3.04115794 9.56807886 -1.28111201 5.01768869 0 0 Z " fill="#434549" transform="translate(180,139)"/>
<path d="M0 0 C2.10531329 3.42113409 2.32490511 6.01991246 2 10 C1 12.875 1 12.875 0 15 C-1.65 15 -3.3 15 -5 15 C-7.84816754 8.76963351 -7.84816754 8.76963351 -7 5 C-4.84242012 3.03611807 -2.49804629 1.49755326 0 0 Z " fill="#3F4449" transform="translate(209,118)"/>
<path d="M0 0 C0.99 0 1.98 0 3 0 C3 0.66 3 1.32 3 2 C3.66 2 4.32 2 5 2 C5 2.66 5 3.32 5 4 C5.66 4 6.32 4 7 4 C7 4.99 7 5.98 7 7 C9.31 7 11.62 7 14 7 C14 8.32 14 9.64 14 11 C14.66 11 15.32 11 16 11 C16.33 13.31 16.66 15.62 17 18 C16.67 17.34 16.34 16.68 16 16 C14.02 16 12.04 16 10 16 C8.23537317 12.91190305 8 11.76687864 8 8 C6.824375 8.0928125 6.824375 8.0928125 5.625 8.1875 C4.325625 8.0946875 4.325625 8.0946875 3 8 C2.34 7.01 1.68 6.02 1 5 C0.67 5 0.34 5 0 5 C0 3.35 0 1.7 0 0 Z " fill="#86868A" transform="translate(96,104)"/>
<path d="M0 0 C0.226875 0.639375 0.45375 1.27875 0.6875 1.9375 C1.85250896 4.27193661 1.85250896 4.27193661 4.625 4.75 C5.40875 4.8325 6.1925 4.915 7 5 C7 5.66 7 6.32 7 7 C8.32 7.33 9.64 7.66 11 8 C10.34 9.32 9.68 10.64 9 12 C5.37 11.67 1.74 11.34 -2 11 C-3.09192376 5.5403812 -2.65680044 4.56969675 0 0 Z " fill="#5C6267" transform="translate(40,97)"/>
<path d="M0 0 C2.475 0.495 2.475 0.495 5 1 C5 1.99 5 2.98 5 4 C5.78375 3.505 6.5675 3.01 7.375 2.5 C10 1 10 1 12 1 C11.44271087 4.34373475 10.64826111 7.03312999 9 10 C8.34 10 7.68 10 7 10 C7 10.99 7 11.98 7 13 C6.34 13 5.68 13 5 13 C5 12.01 5 11.02 5 10 C4.360625 9.835 3.72125 9.67 3.0625 9.5 C1 8 1 8 0.51171875 6.0859375 C0.2724022 4.06424845 0.13106972 2.03158061 0 0 Z " fill="#7B7678" transform="translate(108,166)"/>
<path d="M0 0 C1.87597594 2.81396392 3.48342813 5.67017063 5.125 8.625 C8.4691237 14.41209406 12.35166324 19.21885362 17 24 C12.51857946 24 10.71213734 21.57815763 7.49609375 18.63671875 C-4 6.49295775 -4 6.49295775 -4 1 C-3.34 1 -2.68 1 -2 1 C-1.67 1.66 -1.34 2.32 -1 3 C-0.67 2.01 -0.34 1.02 0 0 Z " fill="#EDEDEF" transform="translate(35,139)"/>
<path d="M0 0 C-1.485 1.485 -1.485 1.485 -3 3 C-2.360625 3.2475 -1.72125 3.495 -1.0625 3.75 C1 5 1 5 1.625 7.0625 C1.74875 7.701875 1.8725 8.34125 2 9 C2.66 9.33 3.32 9.66 4 10 C-1.75 14 -1.75 14 -4 14 C-4 13.34 -4 12.68 -4 12 C-4.66 12 -5.32 12 -6 12 C-6.33 11.01 -6.66 10.02 -7 9 C-6.67 8.67 -6.34 8.34 -6 8 C-6.66 7.34 -7.32 6.68 -8 6 C-8 5.34 -8 4.68 -8 4 C-8.33 3.34 -8.66 2.68 -9 2 C-3.375 -1.125 -3.375 -1.125 0 0 Z " fill="#A2A3A7" transform="translate(63,48)"/>
<path d="M0 0 C6.45584553 0.10759743 9.49795917 1.38540815 14 6 C14 6.66 14 7.32 14 8 C14.99 8.33 15.98 8.66 17 9 C17.33 9.99 17.66 10.98 18 12 C17.34 12 16.68 12 16 12 C15.67 11.34 15.34 10.68 15 10 C13.13577084 9.79903658 13.13577084 9.79903658 10.9375 9.8125 C5.06299232 9.34178624 1.94204292 6.1139031 -2 2 C-1.34 1.34 -0.68 0.68 0 0 Z " fill="#8A8A8E" transform="translate(159,96)"/>
<path d="M0 0 C0.33 0 0.66 0 1 0 C1 2.31 1 4.62 1 7 C2.32 7 3.64 7 5 7 C5 7.66 5 8.32 5 9 C6.65 9 8.3 9 10 9 C10 10.65 10 12.3 10 14 C9.67 13.01 9.34 12.02 9 11 C5.34621848 12.21171114 5.34621848 12.21171114 2 14 C0.48026848 17.05181069 0.48026848 17.05181069 0 20 C-0.8723412 17.00519083 -1.10829766 14.36424089 -1.0625 11.25 C-1.05347656 10.45078125 -1.04445312 9.6515625 -1.03515625 8.828125 C-1.02355469 8.22484375 -1.01195312 7.6215625 -1 7 C-4.11785113 7.64644661 -4.11785113 7.64644661 -5 10 C-5 8.02 -5 6.04 -5 4 C-3.68 4 -2.36 4 -1 4 C-0.67 2.68 -0.34 1.36 0 0 Z " fill="#CCCCCD" transform="translate(184,122)"/>
<path d="M0 0 C0.78375 0.04125 1.5675 0.0825 2.375 0.125 C2.375 0.455 2.375 0.785 2.375 1.125 C8.67105349 2.77735793 14.94566155 3.96357426 21.37109375 4.98046875 C25.01091476 5.5881947 28.19970674 6.18639991 31.375 8.125 C27.50568744 9.61996167 25.32466056 10.35178851 21.375 9.125 C20.70984375 8.92261719 20.0446875 8.72023438 19.359375 8.51171875 C18.25335938 8.16560547 18.25335938 8.16560547 17.125 7.8125 C9.94899781 5.63599483 2.65714613 3.90487939 -4.625 2.125 C-2.625 0.125 -2.625 0.125 0 0 Z " fill="#C9C5C5" transform="translate(76.625,69.875)"/>
<path d="M0 0 C1.4606285 2.64738916 2 3.89448334 2 7 C-1.50776784 8.60355101 -4.14354879 9.22036864 -8 9 C-8.33 9.66 -8.66 10.32 -9 11 C-10.25664978 8.09399739 -11 6.20395416 -11 3 C-5.555 2.505 -5.555 2.505 0 2 C0 1.34 0 0.68 0 0 Z " fill="#BABEC2" transform="translate(191,105)"/>
<path d="M0 0 C0.99 0.33 1.98 0.66 3 1 C2.67 1.66 2.34 2.32 2 3 C4.64 3.33 7.28 3.66 10 4 C10 4.66 10 5.32 10 6 C10.66 6 11.32 6 12 6 C12 6.99 12 7.98 12 9 C11.34 9 10.68 9 10 9 C10 9.66 10 10.32 10 11 C6.25 12.125 6.25 12.125 4 11 C4 9.68 4 8.36 4 7 C1.03 6.505 1.03 6.505 -2 6 C-2.33 4.68 -2.66 3.36 -3 2 C-2.01 1.34 -1.02 0.68 0 0 Z " fill="#5E5D63" transform="translate(54,82)"/>
<path d="M0 0 C1.8871875 0.0309375 1.8871875 0.0309375 3.8125 0.0625 C5.90480769 4.49326923 5.90480769 4.49326923 5.4375 7.375 C5.23125 7.931875 5.025 8.48875 4.8125 9.0625 C4.1525 8.0725 3.4925 7.0825 2.8125 6.0625 C0.67116817 5.73622441 0.67116817 5.73622441 -1.6875 5.9375 C-6.01590237 6.14829882 -6.01590237 6.14829882 -8.1875 5.0625 C-7.875 3.125 -7.875 3.125 -7.1875 1.0625 C-4.43671116 0.14557039 -2.82801087 -0.04636083 0 0 Z " fill="#37383E" transform="translate(87.1875,83.9375)"/>
<path d="M0 0 C7.92 0 15.84 0 24 0 C24 0.33 24 0.66 24 1 C23.39003174 1.11593506 22.78006348 1.23187012 22.15161133 1.35131836 C19.371861 1.87980106 16.59217993 2.40864714 13.8125 2.9375 C12.85279297 3.11990234 11.89308594 3.30230469 10.90429688 3.49023438 C9.97294922 3.66748047 9.04160156 3.84472656 8.08203125 4.02734375 C7.22843018 4.18968506 6.3748291 4.35202637 5.49536133 4.51928711 C2.99445397 5.0010684 0.4968208 5.49750748 -2 6 C-2.33 5.01 -2.66 4.02 -3 3 C-2.01 3 -1.02 3 0 3 C0 2.01 0 1.02 0 0 Z " fill="#D6D6D6" transform="translate(80,48)"/>
<path d="M0 0 C0.66 0 1.32 0 2 0 C2 0.66 2 1.32 2 2 C5.3 1.67 8.6 1.34 12 1 C12.33 1.99 12.66 2.98 13 4 C11.68 4 10.36 4 9 4 C9 5.65 9 7.3 9 9 C8.01 9.33 7.02 9.66 6 10 C6 9.34 6 8.68 6 8 C4.68 8.33 3.36 8.66 2 9 C0.50178941 5.62902617 0 3.79557881 0 0 Z " fill="#525156" transform="translate(35,135)"/>
<path d="M0 0 C2 2 2 2 2.1953125 3.9453125 C2.13020833 5.96354167 2.06510417 7.98177083 2 10 C1.67 8.68 1.34 7.36 1 6 C-1.60937724 7.70959199 -2.97375904 8.95486555 -4.5625 11.6875 C-5.2740625 12.8321875 -5.2740625 12.8321875 -6 14 C-6.99 14 -7.98 14 -9 14 C-9.28125 11.2734375 -9.28125 11.2734375 -9 8 C-7.03125 5.6640625 -7.03125 5.6640625 -4.5 3.625 C-3.6646875 2.93664062 -2.829375 2.24828125 -1.96875 1.5390625 C-1.3190625 1.03117187 -0.669375 0.52328125 0 0 Z " fill="#6E7174" transform="translate(128,110)"/>
<path d="M0 0 C3.77545388 1.09068668 6.47043472 1.9083091 9 5 C2.84629161 6.823321 -2.59646678 7.2361959 -9 7 C-9 7.66 -9 8.32 -9 9 C-9.99 9 -10.98 9 -12 9 C-12 8.01 -12 7.02 -12 6 C-11.21753906 5.81824219 -10.43507812 5.63648437 -9.62890625 5.44921875 C-8.11103516 5.07216797 -8.11103516 5.07216797 -6.5625 4.6875 C-5.04849609 4.32205078 -5.04849609 4.32205078 -3.50390625 3.94921875 C-2.26447266 3.47935547 -2.26447266 3.47935547 -1 3 C-0.67 2.01 -0.34 1.02 0 0 Z " fill="#7E7C7F" transform="translate(164,77)"/>
<path d="M0 0 C0.66 0 1.32 0 2 0 C1.625 2.4375 1.625 2.4375 1 5 C0.01 5.495 0.01 5.495 -1 6 C-1.20625 6.7425 -1.4125 7.485 -1.625 8.25 C-3.64442005 12.28884009 -7.00956848 14.04635123 -11 16 C-11.66 16 -12.32 16 -13 16 C-11.54974765 12.63361113 -9.70513547 10.51960775 -7.0625 8 C-4.95686468 5.98488732 -3.08208223 4.11337977 -1.37109375 1.75 C-0.91863281 1.1725 -0.46617187 0.595 0 0 Z " fill="#2F3033" transform="translate(174,156)"/>
<path d="M0 0 C1 2 1 2 0.125 5.375 C-1.39448559 8.79739279 -3.08736987 9.81602838 -6.5 11.25 C-7.2734375 11.52328125 -8.046875 11.7965625 -8.84375 12.078125 C-11.14715418 13.06291374 -12.2817243 14.22178445 -14 16 C-14.66 16 -15.32 16 -16 16 C-16 16.66 -16 17.32 -16 18 C-17.32 18 -18.64 18 -20 18 C-18.72686604 14.18059812 -17.35211493 13.18616191 -14 11 C-10.1875 10.25 -10.1875 10.25 -7 10 C-7 9.01 -7 8.02 -7 7 C-6.01 6.67 -5.02 6.34 -4 6 C-2.60287726 4.04402816 -1.26220093 2.04563599 0 0 Z " fill="#C9CBCD" transform="translate(135,86)"/>
<path d="M0 0 C0.66 0 1.32 0 2 0 C2 1.65 2 3.3 2 5 C3.32 5 4.64 5 6 5 C5.67 6.32 5.34 7.64 5 9 C1.7 9 -1.6 9 -5 9 C-5 8.34 -5 7.68 -5 7 C-5.99 7.33 -6.98 7.66 -8 8 C-8 6.68 -8 5.36 -8 4 C-5.36 4.33 -2.72 4.66 0 5 C0 3.35 0 1.7 0 0 Z " fill="#959497" transform="translate(42,128)"/>
<path d="M0 0 C3.50416947 0.17520847 5.67900727 0.56168032 8.75 2.1875 C9.08 2.8475 9.41 3.5075 9.75 4.1875 C8.5125 4.331875 7.275 4.47625 6 4.625 C1.56453333 5.18823386 -1.46957826 5.66721884 -5.25 8.1875 C-4.23908066 0.24456235 -4.23908066 0.24456235 0 0 Z " fill="#29292C" transform="translate(140.25,83.8125)"/>
<path d="M0 0 C0.22429688 0.64453125 0.44859375 1.2890625 0.6796875 1.953125 C1.82889456 4.24388852 1.82889456 4.24388852 4.3828125 4.609375 C5.74019531 4.67898437 5.74019531 4.67898437 7.125 4.75 C8.03507812 4.80671875 8.94515625 4.8634375 9.8828125 4.921875 C10.58148438 4.94765625 11.28015625 4.9734375 12 5 C11.01 5.495 11.01 5.495 10 6 C10 7.32 10 8.64 10 10 C8.35 10 6.7 10 5 10 C5 9.34 5 8.68 5 8 C2.03 7.505 2.03 7.505 -1 7 C-0.67 4.69 -0.34 2.38 0 0 Z " fill="#BBBFC2" transform="translate(36,104)"/>
<path d="M0 0 C2.62386487 3.06117568 3 3.73173127 3 8 C-0.96 8.66 -4.92 9.32 -9 10 C-9 8.68 -9 7.36 -9 6 C-7.02 5.67 -5.04 5.34 -3 5 C-2.67 4.01 -2.34 3.02 -2 2 C-1.34 2 -0.68 2 0 2 C0 1.34 0 0.68 0 0 Z " fill="#767D83" transform="translate(188,99)"/>
<path d="M0 0 C0.66 0 1.32 0 2 0 C2.33 0.99 2.66 1.98 3 3 C0.6875 6.1875 0.6875 6.1875 -2 9 C-2.66 9 -3.32 9 -4 9 C-4 9.66 -4 10.32 -4 11 C-5.96875 12.7265625 -5.96875 12.7265625 -8.5 14.625 C-9.75296875 15.57246094 -9.75296875 15.57246094 -11.03125 16.5390625 C-11.6809375 17.02117187 -12.330625 17.50328125 -13 18 C-13.66 17.67 -14.32 17.34 -15 17 C-13.71034824 15.62437146 -12.37310707 14.29233607 -11 13 C-10.34 13 -9.68 13 -9 13 C-8.7421875 12.43796875 -8.484375 11.8759375 -8.21875 11.296875 C-6.85830223 8.73295421 -5.27211038 6.54773635 -3.5 4.25 C-2.58734375 3.05117187 -2.58734375 3.05117187 -1.65625 1.828125 C-1.1096875 1.22484375 -0.563125 0.6215625 0 0 Z " fill="#E4E7EA" transform="translate(188,148)"/>
<path d="M0 0 C0.66 0.33 1.32 0.66 2 1 C2.55353075 16.92938497 2.55353075 16.92938497 -1 23 C-2.00582207 19.9825338 -1.99026621 18.89459413 -1.5 15.875 C-1.335 14.59625 -1.17 13.3175 -1 12 C-1.33 11.67 -1.66 11.34 -2 11 C-2.07179964 9.48071962 -2.08392007 7.95832518 -2.0625 6.4375 C-2.05347656 5.61121094 -2.04445312 4.78492188 -2.03515625 3.93359375 C-2.02355469 3.29550781 -2.01195312 2.65742188 -2 2 C-1.34 2 -0.68 2 0 2 C0 1.34 0 0.68 0 0 Z " fill="#7B7C7E" transform="translate(182,128)"/>
<path d="M0 0 C-1.3967121 2.7934242 -2.99413085 2.96442959 -5.875 4.0625 C-6.75929687 4.40410156 -7.64359375 4.74570313 -8.5546875 5.09765625 C-12.51811205 6.5601979 -15.46657015 7.112158 -19.6875 7.0625 C-20.68136719 7.05347656 -21.67523438 7.04445313 -22.69921875 7.03515625 C-23.83810547 7.01775391 -23.83810547 7.01775391 -25 7 C-25 6.34 -25 5.68 -25 5 C-18.565 4.505 -18.565 4.505 -12 4 C-12 3.34 -12 2.68 -12 2 C-7.82262526 0.40861915 -4.46839215 -0.21278058 0 0 Z " fill="#A5A1A2" transform="translate(161,74)"/>
<path d="M0 0 C6.25644413 -0.3830476 10.20764245 0.41412609 16 3 C18.36551759 3.35189518 20.69494162 3.55582285 23.08203125 3.69140625 C25 4 25 4 27 6 C22.95918598 6.9855644 20.21883507 6.98458032 16.27734375 5.6796875 C10.95195503 4.09029189 5.43797318 3.13133977 0 2 C0 1.34 0 0.68 0 0 Z " fill="#ADA9A9" transform="translate(69,74)"/>
<path d="M0 0 C0 0.66 0 1.32 0 2 C0.99 2.33 1.98 2.66 3 3 C2.67 4.32 2.34 5.64 2 7 C1.34 6.34 0.68 5.68 0 5 C-0.99 5.66 -1.98 6.32 -3 7 C-3.33 6.01 -3.66 5.02 -4 4 C-4.99 3.67 -5.98 3.34 -7 3 C-8.6875 0.9375 -8.6875 0.9375 -10 -1 C-6.06329512 -2.31223496 -3.87511856 -1.24296256 0 0 Z " fill="#CFD3D5" transform="translate(175,106)"/>
<path d="M0 0 C3.57107403 1.33040013 6.70226642 2.92889527 9.9375 4.9375 C15.98995603 8.60646671 21.14742848 11.24201003 28.14453125 12.47265625 C28.75683594 12.64667969 29.36914062 12.82070312 30 13 C30.33 13.66 30.66 14.32 31 15 C28.69 15.33 26.38 15.66 24 16 C23.67 15.34 23.34 14.68 23 14 C19.78728047 12.30377396 16.53777137 10.73676493 13.25390625 9.18554688 C8.44807251 6.86287584 4.22915854 4.26899525 0 1 C0 0.67 0 0.34 0 0 Z " fill="#777778" transform="translate(52,164)"/>
<path d="M0 0 C0.30078125 2.2265625 0.30078125 2.2265625 0 5 C-2.08203125 7.2734375 -2.08203125 7.2734375 -4.8125 9.375 C-5.70582031 10.08398438 -6.59914062 10.79296875 -7.51953125 11.5234375 C-8.33808594 12.01070312 -9.15664062 12.49796875 -10 13 C-10.99 12.67 -11.98 12.34 -13 12 C-11.88200014 10.66079162 -10.75538103 9.32877444 -9.625 8 C-8.99851563 7.2575 -8.37203125 6.515 -7.7265625 5.75 C-7.15679687 5.1725 -6.58703125 4.595 -6 4 C-5.34 4 -4.68 4 -4 4 C-4 3.34 -4 2.68 -4 2 C-1 0 -1 0 0 0 Z " fill="#323437" transform="translate(188,155)"/>
<path d="M0 0 C0.33 0.99 0.66 1.98 1 3 C0.34 3 -0.32 3 -1 3 C-1.2475 3.59296875 -1.495 4.1859375 -1.75 4.796875 C-3.18968863 7.3343262 -4.65151493 8.54044102 -7 10.25 C-7.70125 10.77078125 -8.4025 11.2915625 -9.125 11.828125 C-11 13 -11 13 -13 13 C-13.3125 10.6875 -13.3125 10.6875 -13 8 C-10.875 6.375 -10.875 6.375 -8 5 C-3.67458949 2.95937666 -3.67458949 2.95937666 0 0 Z " fill="#B1B1B3" transform="translate(127,99)"/>
<path d="M0 0 C0.99 0.495 0.99 0.495 2 1 C2 1.99 2 2.98 2 4 C3.65 4 5.3 4 7 4 C8.25664978 6.90600261 9 8.79604584 9 12 C8.01 12 7.02 12 6 12 C5.67 11.01 5.34 10.02 5 9 C4.01 9 3.02 9 2 9 C1.67 9.99 1.34 10.98 1 12 C0.67 8.04 0.34 4.08 0 0 Z " fill="#75747A" transform="translate(97,108)"/>
<path d="M0 0 C2.97 0 5.94 0 9 0 C9.33 0.99 9.66 1.98 10 3 C11.65 3.33 13.3 3.66 15 4 C15 5.65 15 7.3 15 9 C12.36 8.67 9.72 8.34 7 8 C5.875 3.25 5.875 3.25 7 1 C4.69 1 2.38 1 0 1 C0 0.67 0 0.34 0 0 Z " fill="#A7A7A9" transform="translate(97,102)"/>
<path d="M0 0 C3.4375 0.8125 3.4375 0.8125 7 2 C7.33 2.99 7.66 3.98 8 5 C5 7 5 7 2.58984375 6.609375 C1.71457031 6.32578125 0.83929688 6.0421875 -0.0625 5.75 C-0.94035156 5.47671875 -1.81820312 5.2034375 -2.72265625 4.921875 C-5 4 -5 4 -7 2 C-4.69 2.33 -2.38 2.66 0 3 C0 2.01 0 1.02 0 0 Z " fill="#C8C9CE" transform="translate(149,49)"/>
<path d="M0 0 C0.66 0.33 1.32 0.66 2 1 C2.625 3.5625 2.625 3.5625 3 6 C1.68 5.67 0.36 5.34 -1 5 C-0.67 7.31 -0.34 9.62 0 12 C-2.66666667 10.66666667 -5.33333333 9.33333333 -8 8 C-8 7.34 -8 6.68 -8 6 C-6.03852126 4.61061923 -4.03833424 3.2739589 -2 2 C-2 2.66 -2 3.32 -2 4 C-1.34 4 -0.68 4 0 4 C0 2.68 0 1.36 0 0 Z " fill="#A4A5A9" transform="translate(176,55)"/>
<path d="M0 0 C1.32 0.33 2.64 0.66 4 1 C2.8553125 2.0828125 2.8553125 2.0828125 1.6875 3.1875 C-0.71133591 5.69790967 -2.35410221 7.96808302 -4 11 C-6.2477975 8.94766315 -7.0022242 7.99332739 -8 5 C-6 3 -6 3 -3.4375 2.5 C-2.633125 2.335 -1.82875 2.17 -1 2 C-0.67 1.34 -0.34 0.68 0 0 Z " fill="#6C757A" transform="translate(198,74)"/>
<path d="M0 0 C0.9075 0.350625 1.815 0.70125 2.75 1.0625 C3.86375 1.5265625 3.86375 1.5265625 5 2 C3 4 3 4 0.7578125 4.265625 C-0.11101562 4.26046875 -0.97984375 4.2553125 -1.875 4.25 C-2.73867187 4.25515625 -3.60234375 4.2603125 -4.4921875 4.265625 C-7.10473577 3.98890649 -8.7500088 3.3185995 -11 2 C-3.59747546 -1.55890603 -3.59747546 -1.55890603 0 0 Z " fill="#948F91" transform="translate(70,76)"/>
<path d="M0 0 C0.9075 0.37125 1.815 0.7425 2.75 1.125 C-0.73347063 3.44731376 -3.06129232 3.70445733 -7.1875 4.25 C-8.41339844 4.41757813 -9.63929688 4.58515625 -10.90234375 4.7578125 C-14.25 5.125 -14.25 5.125 -18.25 5.125 C-18.25 4.465 -18.25 3.805 -18.25 3.125 C-17.50234375 3.00382812 -16.7546875 2.88265625 -15.984375 2.7578125 C-14.99953125 2.59023437 -14.0146875 2.42265625 -13 2.25 C-12.02546875 2.08757812 -11.0509375 1.92515625 -10.046875 1.7578125 C-7.27836979 1.25662177 -7.27836979 1.25662177 -5.09375 0 C-3.25 -0.875 -3.25 -0.875 0 0 Z M-22.25 5.125 C-18.25 6.125 -18.25 6.125 -18.25 6.125 Z " fill="#C1BEBE" transform="translate(154.25,70.875)"/>
<path d="M0 0 C-0.66 2.31 -1.32 4.62 -2 7 C-4.31 6.01 -6.62 5.02 -9 4 C-9 3.01 -9 2.02 -9 1 C-5.57367167 -0.61798838 -3.61944899 -1.34053666 0 0 Z M-9 5 C-7 6 -7 6 -7 6 Z " fill="#C8C7CD" transform="translate(81,41)"/>
<path d="M0 0 C0 0.99 0 1.98 0 3 C-0.99 3 -1.98 3 -3 3 C-3.33 3.66 -3.66 4.32 -4 5 C-6.64 3.68 -9.28 2.36 -12 1 C-7.98716318 -3.01283682 -5.03280241 -1.94449184 0 0 Z " fill="#54555A" transform="translate(156,89)"/>
<path d="M0 0 C-0.99 0.495 -0.99 0.495 -2 1 C-2 1.66 -2 2.32 -2 3 C-8.7831364 4.42002108 -15.06697907 5.22731216 -22 5 C-18.6338436 3.10705142 -15.31729781 2.23447973 -11.5625 1.375 C-10.45003906 1.11460937 -9.33757812 0.85421875 -8.19140625 0.5859375 C-5.3616884 0.06640546 -2.86450045 -0.11779254 0 0 Z " fill="#3F3F3F" transform="translate(146,179)"/>
<path d="M0 0 C0.6875 1.625 0.6875 1.625 1 4 C-0.4375 7.25 -0.4375 7.25 -2 10 C-3.65 9.67 -5.3 9.34 -7 9 C-7.66 6.69 -8.32 4.38 -9 2 C-7.02 2.99 -7.02 2.99 -5 4 C-5 4.99 -5 5.98 -5 7 C-4.34 7 -3.68 7 -3 7 C-3 6.01 -3 5.02 -3 4 C-2.34 4 -1.68 4 -1 4 C-0.67 2.68 -0.34 1.36 0 0 Z " fill="#D6D5D6" transform="translate(118,172)"/>
<path d="M0 0 C-0.56589844 0.48210937 -1.13179687 0.96421875 -1.71484375 1.4609375 C-2.44832031 2.09257813 -3.18179688 2.72421875 -3.9375 3.375 C-4.66839844 4.00148438 -5.39929688 4.62796875 -6.15234375 5.2734375 C-8.08380906 6.87747714 -8.08380906 6.87747714 -9 9 C-10.32 9 -11.64 9 -13 9 C-11.21934529 4.84513901 -8.74993989 2.11359811 -4.9375 -0.3125 C-3 -1 -3 -1 0 0 Z " fill="#807F85" transform="translate(128,111)"/>
<path d="M0 0 C0.66 0.33 1.32 0.66 2 1 C1.01 2.32 0.02 3.64 -1 5 C-0.01 5.33 0.98 5.66 2 6 C1.01 7.485 1.01 7.485 0 9 C-2.64 8.01 -5.28 7.02 -8 6 C-3.375 1.125 -3.375 1.125 0 0 Z M-2 8 C-1.67 8.66 -1.34 9.32 -1 10 C-1.66 9.67 -2.32 9.34 -3 9 C-2.67 8.67 -2.34 8.34 -2 8 Z " fill="#81898C" transform="translate(44,58)"/>
<path d="M0 0 C0.66 0.33 1.32 0.66 2 1 C2 3.64 2 6.28 2 9 C0.9275 9.144375 -0.145 9.28875 -1.25 9.4375 C-3.91662949 9.83749442 -6.41399729 10.27591924 -9 11 C-9 9.68 -9 8.36 -9 7 C-5.7 6.34 -2.4 5.68 1 5 C0.67 3.35 0.34 1.7 0 0 Z " fill="#D8DADC" transform="translate(192,107)"/>
<path d="M0 0 C0.99 0.66 1.98 1.32 3 2 C2.34 2 1.68 2 1 2 C0.67 3.98 0.34 5.96 0 8 C-0.66 8 -1.32 8 -2 8 C-2 8.66 -2 9.32 -2 10 C-3.98 10 -5.96 10 -8 10 C-8.33 9.34 -8.66 8.68 -9 8 C-7.625 6 -7.625 6 -6 4 C-4 4 -4 4 -2.375 5.5 C-1.92125 5.995 -1.4675 6.49 -1 7 C-1.20625 6.401875 -1.4125 5.80375 -1.625 5.1875 C-2 3 -2 3 0 0 Z " fill="#61696D" transform="translate(33,70)"/>
<path d="M0 0 C1.65 0.33 3.3 0.66 5 1 C4.50168276 4.68754757 3.89932357 6.60490662 1 9 C-0.32 8.01 -1.64 7.02 -3 6 C-2.01 4.02 -1.02 2.04 0 0 Z " fill="#383B40" transform="translate(183,145)"/>
<path d="M0 0 C0 0.33 0 0.66 0 1 C-3.63 1.66 -7.26 2.32 -11 3 C-11 3.66 -11 4.32 -11 5 C-15.0527516 5.98248524 -18.83861737 6.08159574 -23 6 C-21.68 5.67 -20.36 5.34 -19 5 C-19 4.34 -19 3.68 -19 3 C-16.96040523 2.49161436 -14.91820862 1.99366114 -12.875 1.5 C-11.73804688 1.2215625 -10.60109375 0.943125 -9.4296875 0.65625 C-6.18533302 0.03546235 -3.29185543 -0.12006768 0 0 Z " fill="#B2AEAE" transform="translate(160,73)"/>
<path d="M0 0 C0 1.65 0 3.3 0 5 C-4.455 6.485 -4.455 6.485 -9 8 C-8.3125 5.125 -8.3125 5.125 -7 2 C-4.50858315 0.62972073 -2.83598698 0 0 0 Z " fill="#6D6D6F" transform="translate(193,133)"/>
<path d="M0 0 C0.66 0 1.32 0 2 0 C2 2.64 2 5.28 2 8 C1.01 8 0.02 8 -1 8 C-3.01151741 8.63106429 -5.01363702 9.29373761 -7 10 C-7 9.34 -7 8.68 -7 8 C-6.01 7.34 -5.02 6.68 -4 6 C-2.9590934 4.35857037 -1.95495674 2.69287785 -1 1 C-0.67 0.67 -0.34 0.34 0 0 Z " fill="#5D6164" transform="translate(127,116)"/>
<path d="M0 0 C-0.33 0.66 -0.66 1.32 -1 2 C-2.7421875 2.55078125 -2.7421875 2.55078125 -5 3 C-5.82757813 3.19980469 -6.65515625 3.39960937 -7.5078125 3.60546875 C-8.37148437 3.79753906 -9.23515625 3.98960938 -10.125 4.1875 C-10.99382812 4.38730469 -11.86265625 4.58710937 -12.7578125 4.79296875 C-13.49773437 4.86128906 -14.23765625 4.92960937 -15 5 C-15.66 4.34 -16.32 3.68 -17 3 C-15.1096624 2.29753005 -13.21243172 1.61359151 -11.3125 0.9375 C-10.25675781 0.55464844 -9.20101562 0.17179687 -8.11328125 -0.22265625 C-4.90666208 -1.0233052 -3.1313693 -0.9237249 0 0 Z " fill="#999597" transform="translate(165,76)"/>
<path d="M0 0 C0 0.66 0 1.32 0 2 C0.99 2 1.98 2 3 2 C3 2.66 3 3.32 3 4 C4.65 4 6.3 4 8 4 C8 4.33 8 4.66 8 5 C2.21101581 5.20674944 -2.42932723 4.59162079 -8 3 C-8 2.34 -8 1.68 -8 1 C-5.07175348 0.02391783 -3.04386724 -0.08226668 0 0 Z " fill="#E2E2E0" transform="translate(88,67)"/>
<path d="M0 0 C1.32 0.66 2.64 1.32 4 2 C4 2.66 4 3.32 4 4 C4.32033957 6.00212229 4.65259077 8.00239695 5 10 C2 10 2 10 -1 8 C-1 4.88742431 -0.82638376 2.89234315 0 0 Z M4 2 C4.66 2.66 5.32 3.32 6 4 C5.34 4 4.68 4 4 4 C4 3.34 4 2.68 4 2 Z " fill="#727A7D" transform="translate(39,64)"/>
<path d="M0 0 C1.875 0.25 1.875 0.25 4 1 C5.25 3.0625 5.25 3.0625 6 5 C7.32 4.67 8.64 4.34 10 4 C9.67 4.99 9.34 5.98 9 7 C8.34 7 7.68 7 7 7 C7 7.99 7 8.98 7 10 C6.34 10 5.68 10 5 10 C5 9.01 5 8.02 5 7 C4.360625 6.773125 3.72125 6.54625 3.0625 6.3125 C1 5 1 5 0.25 2.375 C0.1675 1.59125 0.085 0.8075 0 0 Z " fill="#A5A2A3" transform="translate(108,169)"/>
<path d="M0 0 C3.63 0.33 7.26 0.66 11 1 C11 1.66 11 2.32 11 3 C11.99 3.33 12.98 3.66 14 4 C14.33 4.99 14.66 5.98 15 7 C14.34 7 13.68 7 13 7 C12.67 6.34 12.34 5.68 12 5 C9.73853304 4.684656 7.50763451 4.62079472 5.2265625 4.5390625 C3 4 3 4 0 0 Z " fill="#A7ABAE" transform="translate(162,101)"/>
<path d="M0 0 C0 0.99 0 1.98 0 3 C-0.86625 3.1546875 -0.86625 3.1546875 -1.75 3.3125 C-4.31956433 4.09764466 -5.88366695 5.377478 -8 7 C-8.66 7 -9.32 7 -10 7 C-10.33 5.68 -10.66 4.36 -11 3 C-7.16674383 0.29417212 -4.67461851 -0.32613618 0 0 Z " fill="#5E5F64" transform="translate(172,85)"/>
<path d="M0 0 C0.33 0.66 0.66 1.32 1 2 C4.02934491 2.65772428 4.02934491 2.65772428 7 3 C5.25 5.0625 5.25 5.0625 3 7 C0.75 6.75 0.75 6.75 -1 6 C-1.33 6.66 -1.66 7.32 -2 8 C-2.33 7.01 -2.66 6.02 -3 5 C-1.5625 2.3125 -1.5625 2.3125 0 0 Z " fill="#949BA1" transform="translate(56,101)"/>
<path d="M0 0 C0.66 0 1.32 0 2 0 C2 0.66 2 1.32 2 2 C3.32 2.66 4.64 3.32 6 4 C1.25 8 1.25 8 -1 8 C-1.625 5.6875 -1.625 5.6875 -2 3 C-1.34 2.01 -0.68 1.02 0 0 Z " fill="#454B50" transform="translate(43,93)"/>
<path d="M0 0 C0.33 0.99 0.66 1.98 1 3 C1.99 3.33 2.98 3.66 4 4 C2.3125 5.5625 2.3125 5.5625 0 7 C-2.75 6.6875 -2.75 6.6875 -5 6 C-5 5.01 -5 4.02 -5 3 C-2.5 1.3125 -2.5 1.3125 0 0 Z " fill="#4C4F54" transform="translate(78,86)"/>
<path d="M0 0 C8.57142857 0.85714286 8.57142857 0.85714286 12 3 C5.675 5.44375 5.675 5.44375 2 4 C1.34 3.67 0.68 3.34 0 3 C0 2.01 0 1.02 0 0 Z " fill="#CDCDCB" transform="translate(96,75)"/>
<path d="M0 0 C6.31311276 1.34321548 10.79608336 4.24751589 16 8 C15.01 8.495 15.01 8.495 14 9 C11.73086566 7.97018481 9.60824938 6.8955489 7.4375 5.6875 C6.83486328 5.36587891 6.23222656 5.04425781 5.61132812 4.71289062 C1.1324083 2.2648166 1.1324083 2.2648166 0 0 Z " fill="#282929" transform="translate(59,167)"/>
<path d="M0 0 C0.66 0 1.32 0 2 0 C2 0.66 2 1.32 2 2 C3.98 2 5.96 2 8 2 C7.67 3.32 7.34 4.64 7 6 C5.02 6.33 3.04 6.66 1 7 C0.67 4.69 0.34 2.38 0 0 Z " fill="#686467" transform="translate(35,135)"/>
<path d="M0 0 C2.02045442 0.60183749 4.02111039 1.27306096 6 2 C6.33 2.66 6.66 3.32 7 4 C5.68 5.32 4.36 6.64 3 8 C0.7522025 5.94766315 -0.0022242 4.99332739 -1 2 C-0.67 1.34 -0.34 0.68 0 0 Z " fill="#BCC1C5" transform="translate(49,110)"/>
<path d="M0 0 C0.66 0 1.32 0 2 0 C2 0.66 2 1.32 2 2 C5.3 2.66 8.6 3.32 12 4 C12 4.66 12 5.32 12 6 C8.37 5.67 4.74 5.34 1 5 C0.67 3.35 0.34 1.7 0 0 Z " fill="#888D92" transform="translate(37,103)"/>
<path d="M0 0 C0.66 0.33 1.32 0.66 2 1 C2.625 3.0625 2.625 3.0625 3 5 C0.36 5.33 -2.28 5.66 -5 6 C-5.33 4.68 -5.66 3.36 -6 2 C-3 1 -3 1 -1 1 C-0.67 0.67 -0.34 0.34 0 0 Z " fill="#3D3E40" transform="translate(26,132)"/>
<path d="M0 0 C0.33 1.32 0.66 2.64 1 4 C-3.455 7.465 -3.455 7.465 -8 11 C-8.33 10.01 -8.66 9.02 -9 8 C-6.03 5.36 -3.06 2.72 0 0 Z " fill="#76777B" transform="translate(128,110)"/>
<path d="M0 0 C0.33 1.32 0.66 2.64 1 4 C0.195625 4.12375 -0.60875 4.2475 -1.4375 4.375 C-2.7059375 4.684375 -2.7059375 4.684375 -4 5 C-4.33 5.66 -4.66 6.32 -5 7 C-5 6.34 -5 5.68 -5 5 C-6.98 5.33 -8.96 5.66 -11 6 C-11 5.01 -11 4.02 -11 3 C-5.555 2.505 -5.555 2.505 0 2 C0 1.34 0 0.68 0 0 Z " fill="#9FA5AB" transform="translate(191,105)"/>
<path d="M0 0 C5.23880078 0.55145271 9.97350697 1.42922093 15 3 C11.73454239 4.88391785 8.71888239 5.49287967 5 6 C5 5.01 5 4.02 5 3 C2.525 2.01 2.525 2.01 0 1 C0 0.67 0 0.34 0 0 Z " fill="#DCDFE1" transform="translate(139,38)"/>
<path d="M0 0 C3.465 1.98 3.465 1.98 7 4 C7 4.99 7 5.98 7 7 C5.35 7.33 3.7 7.66 2 8 C1.67 8.99 1.34 9.98 1 11 C0.67 10.34 0.34 9.68 0 9 C0.350625 8.21625 0.70125 7.4325 1.0625 6.625 C2.30300466 4.04642399 2.30300466 4.04642399 1.125 1.6875 C0.75375 1.130625 0.3825 0.57375 0 0 Z " fill="#8E9094" transform="translate(181,56)"/>
<path d="M0 0 C2.31 0 4.62 0 7 0 C6.67 1.32 6.34 2.64 6 4 C3.36 4.66 0.72 5.32 -2 6 C-2.33 5.01 -2.66 4.02 -3 3 C-2.01 3 -1.02 3 0 3 C0 2.01 0 1.02 0 0 Z " fill="#C8C9CA" transform="translate(80,48)"/>
<path d="M0 0 C3.1875 -0.3125 3.1875 -0.3125 7 0 C9.9375 2.5 9.9375 2.5 12 5 C8.8125 5.3125 8.8125 5.3125 5 5 C2.0625 2.5 2.0625 2.5 0 0 Z " fill="#3C3C3D" transform="translate(40,160)"/>
<path d="M0 0 C4.41309542 3.15221101 7.00793014 6.55463907 10 11 C7.00779732 9.63629701 4.70973471 8.05091917 2.25 5.875 C1.63640625 5.33617187 1.0228125 4.79734375 0.390625 4.2421875 C-0.06828125 3.83226562 -0.5271875 3.42234375 -1 3 C-0.67 2.01 -0.34 1.02 0 0 Z " fill="#DADDE0" transform="translate(42,153)"/>
<path d="M0 0 C2.37948772 0.17625835 3.70225849 0.69719773 5.37890625 2.40234375 C6.62115486 3.90649092 7.81376056 5.45129851 9 7 C8.01 8.485 8.01 8.485 7 10 C5.82739389 8.71372289 4.6620717 7.42080217 3.5 6.125 C2.8503125 5.40570313 2.200625 4.68640625 1.53125 3.9453125 C0 2 0 2 0 0 Z " fill="#595F63" transform="translate(176,86)"/>
<path d="M0 0 C0.99 0.33 1.98 0.66 3 1 C3 1.99 3 2.98 3 4 C1.46875 5.38671875 1.46875 5.38671875 -0.5 6.6875 C-1.47453125 7.34298828 -1.47453125 7.34298828 -2.46875 8.01171875 C-2.9740625 8.33785156 -3.479375 8.66398437 -4 9 C-4.66 8.67 -5.32 8.34 -6 8 C-5.67 7.01 -5.34 6.02 -5 5 C-4.34 5 -3.68 5 -3 5 C-1.3553326 2.53673288 -1.3553326 2.53673288 0 0 Z " fill="#85888A" transform="translate(49,64)"/>
<path d="M0 0 C2.2109885 0.42793326 3.98119242 0.99059621 6 2 C6.33 2.99 6.66 3.98 7 5 C7.66 5.66 8.32 6.32 9 7 C7.35 6.67 5.7 6.34 4 6 C4 5.34 4 4.68 4 4 C3.34 3.67 2.68 3.34 2 3 C1.67 2.67 1.34 2.34 1 2 C1 3.32 1 4.64 1 6 C0.34 6 -0.32 6 -1 6 C-1.042721 4.33388095 -1.04063832 2.66617115 -1 1 C-0.67 0.67 -0.34 0.34 0 0 Z " fill="#9D9EA1" transform="translate(175,53)"/>
<path d="M0 0 C0.66 0.33 1.32 0.66 2 1 C2 1.99 2 2.98 2 4 C3.11375 3.95875 4.2275 3.9175 5.375 3.875 C9 4 9 4 11 6 C11.125 9.625 11.125 9.625 11 13 C10.67 11.68 10.34 10.36 10 9 C9.34 9 8.68 9 8 9 C8 7.68 8 6.36 8 5 C5.69 5 3.38 5 1 5 C1 4.01 1 3.02 1 2 C0.34 1.67 -0.32 1.34 -1 1 C-0.67 0.67 -0.34 0.34 0 0 Z " fill="#97969A" transform="translate(102,106)"/>
<path d="M0 0 C0.33 0 0.66 0 1 0 C1 2.31 1 4.62 1 7 C0.195625 7.12375 -0.60875 7.2475 -1.4375 7.375 C-2.7059375 7.684375 -2.7059375 7.684375 -4 8 C-4.33 8.66 -4.66 9.32 -5 10 C-5 8.02 -5 6.04 -5 4 C-3.68 4 -2.36 4 -1 4 C-0.67 2.68 -0.34 1.36 0 0 Z " fill="#B3B4B6" transform="translate(184,122)"/>
<path d="M0 0 C1.98 0.66 3.96 1.32 6 2 C5.01 2.33 4.02 2.66 3 3 C2.835 3.66 2.67 4.32 2.5 5 C2.335 5.66 2.17 6.32 2 7 C1.01 7.33 0.02 7.66 -1 8 C-1.04241723 5.66705225 -1.04092937 3.33297433 -1 1 C-0.67 0.67 -0.34 0.34 0 0 Z " fill="#44484C" transform="translate(101,122)"/>
<path d="M0 0 C0.22429688 0.64453125 0.44859375 1.2890625 0.6796875 1.953125 C1.82889456 4.24388852 1.82889456 4.24388852 4.3828125 4.609375 C5.74019531 4.67898437 5.74019531 4.67898437 7.125 4.75 C8.03507812 4.80671875 8.94515625 4.8634375 9.8828125 4.921875 C10.58148438 4.94765625 11.28015625 4.9734375 12 5 C11.01 5.495 11.01 5.495 10 6 C10 6.66 10 7.32 10 8 C6.7 7.01 3.4 6.02 0 5 C0 3.35 0 1.7 0 0 Z " fill="#A5AAAF" transform="translate(36,104)"/>
<path d="M0 0 C0.33 0.99 0.66 1.98 1 3 C1.433125 2.505 1.86625 2.01 2.3125 1.5 C4 0 4 0 7 0 C7 0.99 7 1.98 7 3 C6.34 3 5.68 3 5 3 C5 3.66 5 4.32 5 5 C1.25 6.125 1.25 6.125 -1 5 C-0.67 3.35 -0.34 1.7 0 0 Z " fill="#57585E" transform="translate(59,88)"/>
<path d="M0 0 C0.33 0.66 0.66 1.32 1 2 C-0.25125384 5.75376152 -1.5652404 6.24073289 -5 8 C-5.66 8 -6.32 8 -7 8 C-7 7.01 -7 6.02 -7 5 C-5.46875 3.61328125 -5.46875 3.61328125 -3.5 2.3125 C-2.8503125 1.87550781 -2.200625 1.43851563 -1.53125 0.98828125 C-1.0259375 0.66214844 -0.520625 0.33601562 0 0 Z " fill="#6A6667" transform="translate(120,162)"/>
<path d="M0 0 C1.32 1.65 2.64 3.3 4 5 C2.35 6.65 0.7 8.3 -1 10 C-2.23076923 4.58461538 -2.23076923 4.58461538 -1.0625 1.625 C-0.5365625 0.820625 -0.5365625 0.820625 0 0 Z " fill="#3E3F40" transform="translate(30,140)"/>
<path d="M0 0 C0.99 0.66 1.98 1.32 3 2 C-3.4 6.06153846 -3.4 6.06153846 -6.4375 5.75 C-6.953125 5.5025 -7.46875 5.255 -8 5 C-6.68 4.67 -5.36 4.34 -4 4 C-4 3.34 -4 2.68 -4 2 C-2.68 1.34 -1.36 0.68 0 0 Z " fill="#2E2F32" transform="translate(171,168)"/>
<path d="M0 0 C0.66 0.99 1.32 1.98 2 3 C-0.97 5.31 -3.94 7.62 -7 10 C-7.66 9.67 -8.32 9.34 -9 9 C-7.71034824 7.62437146 -6.37310707 6.29233607 -5 5 C-4.34 5 -3.68 5 -3 5 C-2.690625 4.360625 -2.38125 3.72125 -2.0625 3.0625 C-1 1 -1 1 0 0 Z " fill="#D2D4D7" transform="translate(182,156)"/>
<path d="M0 0 C0 2.31 0 4.62 0 7 C-1.32 7.33 -2.64 7.66 -4 8 C-4 5.69 -4 3.38 -4 1 C-1 0 -1 0 0 0 Z " fill="#5D5F64" transform="translate(103,116)"/>
<path d="M0 0 C3 1 3 1 5 3 C5.99 3.33 6.98 3.66 8 4 C8 5.32 8 6.64 8 8 C7.34 8 6.68 8 6 8 C6 7.01 6 6.02 6 5 C4.35 5 2.7 5 1 5 C0.67 3.35 0.34 1.7 0 0 Z " fill="#C4C6C8" transform="translate(93,89)"/>
<path d="M0 0 C0.66 0.33 1.32 0.66 2 1 C2.59355614 3.64860427 2.74209269 6.29197322 3 9 C2.5875 8.54625 2.175 8.0925 1.75 7.625 C-0.06408095 5.94049626 -1.75285627 5.00734029 -4 4 C-3.34 3.67 -2.68 3.34 -2 3 C-1.67 2.34 -1.34 1.68 -1 1 C-0.67 0.67 -0.34 0.34 0 0 Z " fill="#47474D" transform="translate(90,84)"/>
<path d="M0 0 C0.598125 0.350625 1.19625 0.70125 1.8125 1.0625 C0.4925 2.3825 -0.8275 3.7025 -2.1875 5.0625 C-3.1775 4.4025 -4.1675 3.7425 -5.1875 3.0625 C-5.1875 2.0725 -5.1875 1.0825 -5.1875 0.0625 C-2.1875 -0.9375 -2.1875 -0.9375 0 0 Z " fill="#716F75" transform="translate(160.1875,83.9375)"/>
<path d="M0 0 C2.31 0 4.62 0 7 0 C7 0.66 7 1.32 7 2 C9.64 2.33 12.28 2.66 15 3 C14.67 3.66 14.34 4.32 14 5 C10.7 4.34 7.4 3.68 4 3 C4 2.34 4 1.68 4 1 C2.68 0.67 1.36 0.34 0 0 Z " fill="#E6E6E4" transform="translate(97,72)"/>
<path d="M0 0 C2.125 0.375 2.125 0.375 4 1 C1.47211993 3.79872437 -0.20411134 5.45773019 -4 6 C-2.84826645 3.53199953 -1.95216435 1.95216435 0 0 Z " fill="#242529" transform="translate(165,166)"/>
<path d="M0 0 C-1.485 2.475 -1.485 2.475 -3 5 C-3.5775 4.814375 -4.155 4.62875 -4.75 4.4375 C-7.20692525 3.95976454 -8.64397534 4.24270636 -11 5 C-8.10998474 1.78887193 -4.47884754 -2.23942377 0 0 Z " fill="#69696C" transform="translate(178,165)"/>
<path d="M0 0 C1.11375 0.185625 1.11375 0.185625 2.25 0.375 C-2.89285714 5.94642857 -2.89285714 5.94642857 -6.75 6.375 C-3.42692308 0.46730769 -3.42692308 0.46730769 0 0 Z " fill="#2D2D2D" transform="translate(181.75,161.625)"/>
<path d="M0 0 C1.32 0 2.64 0 4 0 C4 4.62 4 9.24 4 14 C3.67 14 3.34 14 3 14 C3 10.7 3 7.4 3 4 C2.01 3.67 1.02 3.34 0 3 C0 2.01 0 1.02 0 0 Z " fill="#D6D9DC" transform="translate(45,128)"/>
<path d="M0 0 C0.66 0 1.32 0 2 0 C2 0.66 2 1.32 2 2 C1.34 2 0.68 2 0 2 C0 2.66 0 3.32 0 4 C-1.75 5.5078125 -1.75 5.5078125 -4 7.125 C-4.7425 7.66382812 -5.485 8.20265625 -6.25 8.7578125 C-6.8275 9.16773437 -7.405 9.57765625 -8 10 C-6.27200079 6.23055056 -4.01169351 3.85724769 -1 1 C-0.67 0.67 -0.34 0.34 0 0 Z " fill="#C3C9CF" transform="translate(60,95)"/>
<path d="M0 0 C8.57142857 -0.28571429 8.57142857 -0.28571429 12 2 C12 2.33 12 2.66 12 3 C10.37419034 2.88601335 8.74932843 2.75844341 7.125 2.625 C6.22007813 2.55539063 5.31515625 2.48578125 4.3828125 2.4140625 C2 2 2 2 0 0 Z " fill="#333333" transform="translate(78,179)"/>
<path d="M0 0 C-0.33 1.65 -0.66 3.3 -1 5 C-2.32 5.33 -3.64 5.66 -5 6 C-4.625 3.5625 -4.625 3.5625 -4 1 C-2 0 -2 0 0 0 Z " fill="#8D898A" transform="translate(120,167)"/>
<path d="M0 0 C2.0625 0.4375 2.0625 0.4375 4 1 C2.60667426 4.36720387 1.0210714 5.9859524 -2 8 C-1.125 1.125 -1.125 1.125 0 0 Z " fill="#2E3136" transform="translate(180,152)"/>
<path d="M0 0 C4.875 4.75 4.875 4.75 6 7 C4.68 7.33 3.36 7.66 2 8 C0.4375 6.25 0.4375 6.25 -1 4 C-0.6875 1.75 -0.6875 1.75 0 0 Z " fill="#3D3D43" transform="translate(34,147)"/>
<path d="M0 0 C0.33 0.99 0.66 1.98 1 3 C-0.98 3.33 -2.96 3.66 -5 4 C-5.33 4.99 -5.66 5.98 -6 7 C-6.33 5.68 -6.66 4.36 -7 3 C-4.69 2.01 -2.38 1.02 0 0 Z " fill="#596066" transform="translate(184,101)"/>
<path d="M0 0 C3.465 1.485 3.465 1.485 7 3 C6.67 3.66 6.34 4.32 6 5 C3.69 4.67 1.38 4.34 -1 4 C-0.67 2.68 -0.34 1.36 0 0 Z " fill="#868D92" transform="translate(58,99)"/>
<path d="M0 0 C3.16115776 1.36983503 3.9927092 1.9890638 6 5 C5.01 6.485 5.01 6.485 4 8 C3.34 8 2.68 8 2 8 C1.34 5.36 0.68 2.72 0 0 Z " fill="#707679" transform="translate(192,66)"/>
<path d="M0 0 C0.66 0.99 1.32 1.98 2 3 C0.35 4.32 -1.3 5.64 -3 7 C-3.99 5.68 -4.98 4.36 -6 3 C-5.195625 2.87625 -4.39125 2.7525 -3.5625 2.625 C-2.716875 2.41875 -1.87125 2.2125 -1 2 C-0.67 1.34 -0.34 0.68 0 0 Z " fill="#3F4346" transform="translate(53,155)"/>
<path d="M0 0 C0.33 0.99 0.66 1.98 1 3 C1.99 3 2.98 3 4 3 C3.34 4.98 2.68 6.96 2 9 C1.34 8.67 0.68 8.34 0 8 C0 5.36 0 2.72 0 0 Z " fill="#727277" transform="translate(114,117)"/>
<path d="M0 0 C0.66 0.33 1.32 0.66 2 1 C-3.75 6 -3.75 6 -6 6 C-6 4.35 -6 2.7 -6 1 C-5.01 1.495 -5.01 1.495 -4 2 C-3.34 1.67 -2.68 1.34 -2 1 C-1.34 0.67 -0.68 0.34 0 0 Z " fill="#A9A7AA" transform="translate(120,106)"/>
<path d="M0 0 C3.63 1.32 7.26 2.64 11 4 C6.44968209 5.13757948 4.36915594 4.4283779 0 3 C0 2.01 0 1.02 0 0 Z " fill="#6D7378" transform="translate(39,102)"/>
<path d="M0 0 C1.98 0.495 1.98 0.495 4 1 C3.67 2.65 3.34 4.3 3 6 C1.68 6.33 0.36 6.66 -1 7 C-0.67 4.69 -0.34 2.38 0 0 Z " fill="#515459" transform="translate(17,92)"/>
<path d="M0 0 C1.98 0.99 1.98 0.99 4 2 C3.67 3.98 3.34 5.96 3 8 C2.34 7.67 1.68 7.34 1 7 C0.59270772 4.67843403 0.25561323 2.3431213 0 0 Z " fill="#51565A" transform="translate(25,90)"/>
<path d="M0 0 C0.33 0.66 0.66 1.32 1 2 C0.06421005 4.35981813 -0.93347808 6.69631264 -2 9 C-2.99 8.67 -3.98 8.34 -5 8 C-3.35 5.36 -1.7 2.72 0 0 Z " fill="#C2C3C5" transform="translate(135,86)"/>
<path d="M0 0 C3.3 0 6.6 0 10 0 C10 0.99 10 1.98 10 3 C5.82412255 4.39195915 3.86525224 2.82323219 0 1 C0 0.67 0 0.34 0 0 Z " fill="#D5D6DA" transform="translate(142,51)"/>
<path d="M0 0 C0.33 0 0.66 0 1 0 C1 3.3 1 6.6 1 10 C-2 6 -2 6 -1.75 3.3125 C-1 1 -1 1 0 0 Z " fill="#8B8B8B" transform="translate(130,104)"/>
<path d="M0 0 C0.66 0.33 1.32 0.66 2 1 C-1.01887244 4.48331435 -3.56909529 5.79157144 -8 7 C-6.88424427 3.65273281 -6.48655378 3.37920252 -3.5625 1.75 C-2.386875 1.1725 -1.21125 0.595 0 0 Z " fill="#EBEFF2" transform="translate(82,90)"/>
<path d="M0 0 C2.125 0.375 2.125 0.375 4 1 C3.67 2.65 3.34 4.3 3 6 C2.01 5.67 1.02 5.34 0 5 C0 4.34 0 3.68 0 3 C-0.66 2.67 -1.32 2.34 -2 2 C-1.34 1.34 -0.68 0.68 0 0 Z " fill="#697074" transform="translate(29,71)"/>
<path d="M0 0 C0.66 0.66 1.32 1.32 2 2 C1.8125 4.0625 1.8125 4.0625 1 6 C0.01 6.33 -0.98 6.66 -2 7 C-2 5.35 -2 3.7 -2 2 C-1.34 2 -0.68 2 0 2 C0 1.34 0 0.68 0 0 Z " fill="#32373B" transform="translate(47,149)"/>
<path d="M0 0 C1.74627478 2.61941217 2.38722388 4.03824877 3 7 C2.01 7 1.02 7 0 7 C-0.66 5.02 -1.32 3.04 -2 1 C-1.34 0.67 -0.68 0.34 0 0 Z " fill="#494E52" transform="translate(49,146)"/>
<path d="M0 0 C0.33 0 0.66 0 1 0 C1 2.97 1 5.94 1 9 C0.01 9.33 -0.98 9.66 -2 10 C-2.25 3.375 -2.25 3.375 0 0 Z " fill="#EAECEF" transform="translate(192,120)"/>
<path d="M0 0 C0.99 0.33 1.98 0.66 3 1 C-0.96 4.465 -0.96 4.465 -5 8 C-5 5 -5 5 -2.5 2.3125 C-1.675 1.549375 -0.85 0.78625 0 0 Z " fill="#87868C" transform="translate(121,112)"/>
<path d="M0 0 C0.99 0 1.98 0 3 0 C3 1.65 3 3.3 3 5 C2.34 5 1.68 5 1 5 C1.33 5.99 1.66 6.98 2 8 C1.01 7.67 0.02 7.34 -1 7 C-0.7525 6.1028125 -0.7525 6.1028125 -0.5 5.1875 C0.1114124 2.88655664 0.1114124 2.88655664 0 0 Z " fill="#ACB3B9" transform="translate(51,104)"/>
<path d="M0 0 C1.65 0 3.3 0 5 0 C4.67 1.32 4.34 2.64 4 4 C2.02 4.33 0.04 4.66 -2 5 C-1.34 4.67 -0.68 4.34 0 4 C0 2.68 0 1.36 0 0 Z " fill="#26262C" transform="translate(85,84)"/>
<path d="M0 0 C0.99 0.33 1.98 0.66 3 1 C2.34 2.65 1.68 4.3 1 6 C0.01 5.67 -0.98 5.34 -2 5 C-2.33 4.01 -2.66 3.02 -3 2 C-2.01 1.34 -1.02 0.68 0 0 Z " fill="#646669" transform="translate(54,82)"/>
<path d="M0 0 C0 0.99 0 1.98 0 3 C0.3062434 4.33981486 0.63451555 5.67511887 1 7 C-0.98 7 -2.96 7 -5 7 C-3.47793991 4.37098712 -2.15634036 2.15634036 0 0 Z " fill="#7E8689" transform="translate(35,64)"/>
<path d="M0 0 C2.88575819 0.39803561 3.82189513 0.79009069 5.75 3.0625 C6.1625 3.701875 6.575 4.34125 7 5 C5.02 5 3.04 5 1 5 C0.67 3.35 0.34 1.7 0 0 Z " fill="#38393B" transform="translate(57,163)"/>
<path d="M0 0 C0.99 0.33 1.98 0.66 3 1 C2.67 3.64 2.34 6.28 2 9 C1.34 8.67 0.68 8.34 0 8 C-0.6875 4.5 -0.6875 4.5 -1 1 C-0.67 0.67 -0.34 0.34 0 0 Z " fill="#2D2E30" transform="translate(27,139)"/>
<path d="M0 0 C0.33 0 0.66 0 1 0 C1 1.98 1 3.96 1 6 C-0.32 6 -1.64 6 -3 6 C-3.33 6.66 -3.66 7.32 -4 8 C-3.4021799 4.65220745 -2.20964398 2.57791798 0 0 Z " fill="#D4D5D7" transform="translate(182,120)"/>
<path d="M0 0 C0 0.66 0 1.32 0 2 C-2.64738916 3.4606285 -3.89448334 4 -7 4 C-7 3.01 -7 2.02 -7 1 C-4 0 -4 0 0 0 Z " fill="#5F6065" transform="translate(160,91)"/>
<path d="M0 0 C2.64 0 5.28 0 8 0 C8 0.66 8 1.32 8 2 C8.66 2.33 9.32 2.66 10 3 C9.34 3 8.68 3 8 3 C7.67 4.32 7.34 5.64 7 7 C6.773125 6.195625 6.54625 5.39125 6.3125 4.5625 C5.879375 3.716875 5.44625 2.87125 5 2 C2.45224694 1.10613836 2.45224694 1.10613836 0 1 C0 0.67 0 0.34 0 0 Z " fill="#CBCCCE" transform="translate(85,82)"/>
<path d="M0 0 C2 3 2 3 1.75 5.125 C1 7 1 7 -1 8 C-1.625 5.125 -1.625 5.125 -2 2 C-1.34 1.34 -0.68 0.68 0 0 Z " fill="#404247" transform="translate(189,152)"/>
<path d="M0 0 C-0.33 0.99 -0.66 1.98 -1 3 C-3.31 3.33 -5.62 3.66 -8 4 C-5.57415142 1.34311822 -3.76063134 0 0 0 Z " fill="#89898A" transform="translate(193,133)"/>
<path d="M0 0 C0.66 0.33 1.32 0.66 2 1 C2 3.97 2 6.94 2 10 C1.67 10 1.34 10 1 10 C1 8.02 1 6.04 1 4 C0.01 4 -0.98 4 -2 4 C-2 3.34 -2 2.68 -2 2 C-1.34 2 -0.68 2 0 2 C0 1.34 0 0.68 0 0 Z " fill="#8E8E90" transform="translate(182,128)"/>
<path d="M0 0 C0.66 0.99 1.32 1.98 2 3 C1.34 3 0.68 3 0 3 C-0.66 4.32 -1.32 5.64 -2 7 C-3 6 -3 6 -3.0625 3.4375 C-3.041875 2.633125 -3.02125 1.82875 -3 1 C-2.01 1.33 -1.02 1.66 0 2 C0 1.34 0 0.68 0 0 Z " fill="#393E42" transform="translate(206,126)"/>
<path d="M0 0 C3.63 0.33 7.26 0.66 11 1 C11 1.33 11 1.66 11 2 C6.545 2.495 6.545 2.495 2 3 C1.34 2.01 0.68 1.02 0 0 Z " fill="#A3A4A7" transform="translate(162,101)"/>
<path d="M0 0 C2 2 2 2 2 5 C1.01 5.33 0.02 5.66 -1 6 C-1.33 5.34 -1.66 4.68 -2 4 C-1.0625 1.875 -1.0625 1.875 0 0 Z M-5 5 C-2 6 -2 6 -2 6 Z " fill="#4D545A" transform="translate(186,96)"/>
<path d="M0 0 C1.65 0.33 3.3 0.66 5 1 C4.34 1.66 3.68 2.32 3 3 C2.34 2.67 1.68 2.34 1 2 C0.67 2.66 0.34 3.32 0 4 C-0.99 4 -1.98 4 -3 4 C-2.01 2.68 -1.02 1.36 0 0 Z " fill="#D6D7D9" transform="translate(139,88)"/>
<path d="M0 0 C-0.33 0.66 -0.66 1.32 -1 2 C-3.64 2 -6.28 2 -9 2 C-5.96271914 -1.03728086 -4.06215635 -1.35405212 0 0 Z " fill="#403F45" transform="translate(153,88)"/>
<path d="M0 0 C0.66 0.33 1.32 0.66 2 1 C0.75 3 0.75 3 -1 5 C-2.32 5 -3.64 5 -5 5 C-4.1875 3.0625 -4.1875 3.0625 -3 1 C-2.01 0.67 -1.02 0.34 0 0 Z " fill="#798083" transform="translate(44,58)"/>
</svg>
